<svg id="svg" version="1.1" xmlns="http://www.w3.org/2000/svg" xmlns:xlink="http://www.w3.org/1999/xlink" width="400" height="400" viewBox="0, 0, 400,400"><g id="svgg"><path id="path0" d="M263.800 49.984 C 261.787 50.822,258.597 56.662,255.942 64.370 C 254.532 68.465,256.548 70.239,266.400 73.567 C 269.810 74.719,273.352 76.098,274.271 76.631 C 275.190 77.164,276.326 77.600,276.794 77.600 C 280.380 77.600,292.586 84.475,303.284 92.521 C 309.529 97.217,311.541 97.688,314.304 95.099 C 318.126 91.520,314.062 82.847,303.226 71.455 C 291.416 59.040,270.027 47.391,263.800 49.984 M126.290 56.547 C 119.104 60.289,115.024 62.783,110.782 66.025 C 93.840 78.973,81.620 101.211,90.254 103.378 C 90.848 103.527,91.136 103.815,90.987 104.112 C 90.851 104.380,91.018 104.258,91.358 103.841 C 91.697 103.424,91.862 102.900,91.725 102.678 C 91.573 102.432,91.807 102.361,92.324 102.496 C 92.853 102.634,93.517 102.419,94.086 101.924 C 94.589 101.487,95.190 101.011,95.422 100.865 C 95.654 100.719,96.351 99.925,96.970 99.100 C 97.589 98.275,98.272 97.600,98.489 97.600 C 98.705 97.600,99.759 96.812,100.829 95.850 C 109.527 88.030,123.284 79.729,134.400 75.593 C 140.652 73.267,141.868 72.606,142.682 71.096 C 143.893 68.851,144.712 66.473,144.393 66.130 C 144.224 65.948,143.064 63.820,141.815 61.400 C 137.368 52.780,134.966 52.029,126.290 56.547 M197.900 56.682 C 198.395 56.778,199.205 56.778,199.700 56.682 C 200.195 56.587,199.790 56.509,198.800 56.509 C 197.810 56.509,197.405 56.587,197.900 56.682 M82.800 113.962 C 82.470 114.148,77.817 114.428,72.459 114.584 C 57.064 115.032,56.723 115.278,54.011 127.910 C 52.259 136.068,52.657 140.025,55.943 147.144 C 57.024 149.485,58.319 152.570,58.822 154.000 C 60.034 157.449,60.069 157.483,62.814 157.802 L 65.192 158.078 66.937 160.939 C 67.897 162.512,69.897 165.960,71.382 168.600 C 81.588 186.743,93.364 199.759,106.810 207.757 C 139.361 227.119,173.477 201.764,185.865 149.004 C 188.295 138.655,188.823 137.819,192.910 137.839 C 197.464 137.862,198.233 138.923,200.791 148.712 C 210.820 187.097,228.206 209.435,251.475 213.831 C 277.633 218.772,302.549 197.655,322.778 153.400 C 327.498 143.074,327.798 142.624,330.377 142.006 C 331.491 141.738,332.504 141.355,332.629 141.153 C 332.753 140.952,333.008 140.882,333.195 140.997 C 334.583 141.855,333.405 127.720,331.519 120.893 C 330.456 117.043,326.710 114.932,320.571 114.723 L 316.942 114.600 315.771 116.074 C 315.127 116.885,314.060 117.965,313.400 118.474 L 312.200 119.400 249.800 119.291 C 162.279 119.137,89.169 118.812,88.064 118.571 C 87.550 118.459,86.200 117.437,85.064 116.300 C 83.929 115.163,83.223 114.370,83.495 114.537 C 83.834 114.745,83.915 114.644,83.753 114.221 C 83.622 113.879,83.489 113.605,83.457 113.612 C 83.426 113.619,83.130 113.776,82.800 113.962 M113.549 128.426 C 117.419 129.256,116.626 130.793,111.284 132.818 C 98.760 137.566,95.750 139.087,92.150 142.486 C 86.095 148.203,86.148 153.685,92.467 175.200 C 96.555 189.119,96.100 190.369,89.430 183.541 C 74.581 168.340,69.282 151.431,74.772 136.768 C 76.968 130.903,80.887 129.065,93.424 128.019 C 98.788 127.571,110.684 127.812,113.549 128.426 M252.521 128.436 C 256.473 129.491,254.995 130.624,243.935 135.018 C 221.807 143.810,220.778 147.366,230.848 180.255 C 233.899 190.220,232.145 190.695,224.479 181.982 C 211.356 167.066,206.778 151.424,211.556 137.828 C 214.253 130.156,216.462 129.230,235.400 127.835 C 238.809 127.583,250.918 128.009,252.521 128.436 M306.626 217.949 C 306.300 218.581,305.485 220.474,304.817 222.157 C 297.863 239.663,282.202 254.132,263.000 260.791 C 261.020 261.478,257.960 262.749,256.200 263.615 C 254.440 264.481,251.650 265.469,250.000 265.810 C 248.350 266.151,245.565 266.883,243.810 267.437 C 238.115 269.235,222.692 271.950,203.321 274.566 C 196.906 275.433,194.400 276.005,194.400 276.604 C 194.400 278.269,208.050 279.989,221.311 279.996 C 266.597 280.018,299.654 261.214,307.656 230.879 C 309.578 223.593,308.795 213.756,306.626 217.949 " stroke="none" fill="#060505" fill-rule="evenodd"></path><path id="path1" d="M186.800 57.065 C 173.257 58.393,167.079 59.725,151.509 64.678 C 144.439 66.927,144.416 66.938,143.956 68.335 C 142.669 72.233,141.939 72.787,134.400 75.593 C 123.284 79.729,109.527 88.030,100.829 95.850 C 99.759 96.812,98.705 97.600,98.489 97.600 C 98.272 97.600,97.589 98.275,96.970 99.100 C 96.351 99.925,95.654 100.719,95.422 100.865 C 95.190 101.011,94.589 101.487,94.086 101.924 C 93.517 102.419,92.853 102.634,92.324 102.496 C 91.769 102.351,91.569 102.426,91.746 102.712 C 91.895 102.953,90.621 104.826,88.915 106.875 C 87.209 108.924,85.229 111.467,84.515 112.528 L 83.217 114.455 85.173 116.411 C 87.755 118.993,82.725 118.749,138.200 118.975 C 333.724 119.768,311.945 120.000,314.795 117.090 C 317.291 114.540,317.349 114.974,313.900 110.425 C 307.230 101.627,293.509 89.270,281.587 81.321 C 273.945 76.227,273.302 75.899,266.400 73.567 C 260.147 71.455,256.253 69.410,255.898 68.054 C 255.366 66.018,236.535 60.481,223.032 58.391 C 214.459 57.065,194.326 56.328,186.800 57.065 M93.424 128.019 C 80.887 129.065,76.968 130.903,74.772 136.768 C 69.282 151.431,74.581 168.340,89.430 183.541 C 96.100 190.369,96.555 189.119,92.467 175.200 C 86.148 153.685,86.095 148.203,92.150 142.486 C 95.750 139.087,98.760 137.566,111.284 132.818 C 116.626 130.793,117.419 129.256,113.549 128.426 C 110.684 127.812,98.788 127.571,93.424 128.019 M235.400 127.835 C 216.462 129.230,214.253 130.156,211.556 137.828 C 206.778 151.424,211.356 167.066,224.479 181.982 C 232.145 190.695,233.899 190.220,230.848 180.255 C 220.778 147.366,221.807 143.810,243.935 135.018 C 254.995 130.624,256.473 129.491,252.521 128.436 C 250.918 128.009,238.809 127.583,235.400 127.835 M112.200 129.570 L 113.400 130.062 112.498 130.797 C 112.002 131.201,110.292 132.020,108.698 132.617 C 85.007 141.485,82.926 146.224,90.811 173.349 C 94.746 186.889,94.649 187.327,89.000 181.479 C 76.688 168.732,71.459 153.869,74.689 140.800 C 76.880 131.935,79.443 130.376,94.000 129.057 C 97.835 128.710,111.006 129.081,112.200 129.570 M250.500 129.383 C 252.465 130.232,251.316 130.927,241.540 134.797 C 227.821 140.229,223.599 144.788,223.601 154.171 C 223.601 158.751,224.298 161.732,229.769 180.545 C 231.560 186.702,230.938 187.105,226.576 182.614 C 207.125 162.587,205.021 132.553,222.888 129.979 C 230.205 128.925,248.525 128.530,250.500 129.383 M191.057 137.994 C 188.344 138.848,188.155 139.253,185.829 149.156 C 173.478 201.757,139.316 227.093,106.810 207.757 C 93.364 199.759,81.588 186.743,71.382 168.600 C 69.897 165.960,67.905 162.526,66.955 160.968 L 65.228 158.136 62.629 157.748 L 60.029 157.360 59.235 159.980 C 42.786 214.250,58.163 271.981,99.535 311.279 C 136.633 346.518,193.263 359.640,242.200 344.337 C 296.387 327.392,332.009 287.940,344.353 231.200 C 350.520 202.858,346.921 171.466,334.248 143.051 C 333.449 141.259,333.080 140.801,332.695 141.121 C 332.417 141.352,331.323 141.759,330.264 142.026 C 327.802 142.646,327.450 143.181,322.778 153.400 C 302.549 197.655,277.633 218.772,251.475 213.831 C 228.206 209.435,210.820 187.097,200.791 148.712 C 198.137 138.558,196.164 136.385,191.057 137.994 M308.450 217.900 C 309.087 219.526,308.615 227.244,307.656 230.879 C 299.654 261.214,266.597 280.018,221.311 279.996 C 208.050 279.989,194.400 278.269,194.400 276.604 C 194.400 276.005,196.906 275.433,203.321 274.566 C 222.692 271.950,238.115 269.235,243.810 267.437 C 245.565 266.883,248.350 266.151,250.000 265.810 C 251.650 265.469,254.440 264.481,256.200 263.615 C 257.960 262.749,261.020 261.478,263.000 260.791 C 282.202 254.132,297.863 239.663,304.817 222.157 C 307.057 216.518,307.641 215.833,308.450 217.900 " stroke="none" fill="#fabc1c" fill-rule="evenodd"></path><path id="path2" d="M94.000 129.057 C 79.443 130.376,76.880 131.935,74.689 140.800 C 71.459 153.869,76.688 168.732,89.000 181.479 C 94.649 187.327,94.746 186.889,90.811 173.349 C 82.926 146.224,85.007 141.485,108.698 132.617 C 110.292 132.020,112.002 131.201,112.498 130.797 L 113.400 130.062 112.200 129.570 C 111.006 129.081,97.835 128.710,94.000 129.057 M230.200 129.214 C 218.089 130.167,215.089 131.604,212.813 137.544 C 207.625 151.086,212.977 168.613,226.576 182.614 C 230.938 187.105,231.560 186.702,229.769 180.545 C 224.298 161.732,223.601 158.751,223.601 154.171 C 223.599 144.788,227.821 140.229,241.540 134.797 C 251.316 130.927,252.465 130.232,250.500 129.383 C 249.460 128.934,235.263 128.815,230.200 129.214 " stroke="none" fill="#f6f5f3" fill-rule="evenodd"></path></g></svg>