<svg id="svg" version="1.1" xmlns="http://www.w3.org/2000/svg" xmlns:xlink="http://www.w3.org/1999/xlink" width="400" height="534.0751043115439" viewBox="0, 0, 400,534.0751043115439"><g id="svgg"><path id="path0" d="M200.834 0.283 C 197.392 0.764,194.564 1.432,191.794 2.417 C 190.264 2.961,188.743 3.422,188.413 3.441 C 188.084 3.461,187.857 3.547,187.910 3.633 C 188.064 3.882,183.860 5.871,183.565 5.688 C 183.417 5.597,183.331 5.688,183.373 5.890 C 183.419 6.112,183.205 6.250,182.837 6.238 C 182.501 6.227,182.286 6.316,182.361 6.437 C 182.557 6.755,178.676 9.271,178.325 9.054 C 178.146 8.943,178.096 9.041,178.197 9.304 C 178.301 9.576,178.208 9.736,177.945 9.736 C 177.716 9.736,177.451 9.936,177.357 10.182 C 177.260 10.435,177.007 10.560,176.774 10.470 C 176.548 10.383,176.390 10.401,176.423 10.511 C 176.489 10.731,168.815 18.483,168.521 18.492 C 168.419 18.495,168.231 18.612,168.104 18.751 C 167.969 18.898,168.018 18.921,168.220 18.804 C 168.411 18.694,168.567 18.721,168.567 18.865 C 168.567 19.270,167.847 19.769,167.593 19.539 C 167.468 19.425,167.464 19.503,167.585 19.711 C 167.706 19.920,167.693 20.170,167.557 20.268 C 167.422 20.365,166.963 20.982,166.538 21.637 C 166.113 22.293,165.653 22.760,165.516 22.676 C 165.380 22.591,165.177 22.669,165.067 22.848 C 164.941 23.051,164.986 23.099,165.187 22.975 C 165.675 22.673,165.568 23.132,164.935 24.061 C 164.623 24.520,164.056 25.495,163.675 26.227 C 163.295 26.960,162.886 27.498,162.765 27.423 C 162.644 27.349,162.555 27.563,162.566 27.900 C 162.578 28.239,162.436 28.482,162.249 28.446 C 162.041 28.405,161.979 28.556,162.088 28.839 C 162.201 29.134,162.155 29.231,161.958 29.109 C 161.790 29.005,161.561 29.067,161.451 29.246 C 161.325 29.449,161.370 29.497,161.570 29.373 C 162.236 28.962,160.159 34.384,159.416 35.000 C 159.171 35.202,159.132 35.286,159.330 35.185 C 159.726 34.983,159.610 35.697,158.928 37.657 C 158.722 38.250,158.554 38.956,158.554 39.226 C 158.554 39.497,158.366 39.790,158.136 39.878 C 157.907 39.966,157.721 40.199,157.723 40.395 C 157.726 40.648,157.814 40.630,158.026 40.334 C 158.259 40.007,158.289 40.067,158.163 40.612 C 157.914 41.684,157.231 45.845,156.998 47.705 C 156.815 49.169,156.765 49.271,156.592 48.540 C 156.394 47.706,156.394 47.706,156.361 48.454 C 156.343 48.865,156.442 49.273,156.582 49.359 C 156.722 49.445,156.851 51.570,156.871 54.081 C 156.911 59.322,157.531 64.084,158.827 69.108 C 159.299 70.935,159.619 72.601,159.539 72.808 C 159.460 73.016,159.502 73.119,159.634 73.038 C 159.766 72.956,160.157 73.670,160.503 74.623 C 160.849 75.576,161.200 76.533,161.281 76.749 C 161.386 77.026,161.312 77.076,161.035 76.917 C 160.818 76.793,160.915 76.959,161.250 77.285 C 161.607 77.632,161.815 78.115,161.752 78.446 C 161.692 78.758,161.743 78.951,161.865 78.876 C 162.033 78.772,162.723 79.827,162.727 80.194 C 162.727 80.225,161.827 80.208,160.726 80.156 C 149.459 79.624,132.967 82.856,121.208 87.899 C 119.726 88.535,118.366 88.964,118.185 88.852 C 118.000 88.737,117.929 88.767,118.023 88.919 C 118.115 89.069,117.039 89.745,115.632 90.423 C 114.225 91.101,113.011 91.725,112.935 91.811 C 112.510 92.285,108.991 94.022,108.753 93.875 C 108.597 93.779,108.505 93.842,108.547 94.016 C 108.589 94.190,108.131 94.606,107.529 94.941 C 106.927 95.275,106.205 95.748,105.925 95.992 C 105.644 96.235,105.073 96.610,104.655 96.826 C 104.236 97.041,103.832 97.287,103.755 97.372 C 103.124 98.072,101.492 99.036,101.221 98.868 C 101.018 98.743,100.960 98.780,101.074 98.964 C 101.177 99.130,101.137 99.343,100.986 99.436 C 100.835 99.529,100.659 99.319,100.594 98.968 C 99.719 94.232,97.866 88.029,96.255 84.443 C 95.779 83.383,95.455 82.343,95.536 82.133 C 95.616 81.923,95.577 81.817,95.448 81.896 C 95.132 82.091,94.520 80.705,94.754 80.326 C 94.856 80.160,94.813 80.104,94.659 80.199 C 94.504 80.295,94.046 79.765,93.642 79.022 C 92.835 77.540,92.741 77.195,93.228 77.495 C 93.429 77.619,93.474 77.571,93.348 77.368 C 93.237 77.189,93.042 77.107,92.914 77.186 C 92.786 77.265,92.357 76.775,91.960 76.098 C 91.155 74.725,91.073 74.420,91.586 74.715 C 91.788 74.832,91.836 74.809,91.701 74.662 C 91.574 74.523,91.324 74.406,91.145 74.402 C 90.967 74.399,90.838 74.181,90.859 73.918 C 90.880 73.656,90.800 73.501,90.681 73.575 C 90.562 73.648,89.709 72.669,88.786 71.398 C 87.863 70.127,86.910 68.924,86.669 68.724 C 86.166 68.306,86.069 67.739,86.552 68.038 C 86.757 68.165,86.797 68.114,86.663 67.897 C 86.548 67.710,86.380 67.630,86.290 67.720 C 86.103 67.907,84.006 65.936,84.006 65.574 C 84.006 65.443,84.162 65.426,84.353 65.536 C 84.555 65.652,84.604 65.630,84.469 65.483 C 84.342 65.343,84.091 65.229,83.913 65.229 C 83.734 65.229,83.588 65.073,83.588 64.882 C 83.588 64.691,83.463 64.523,83.310 64.510 C 82.883 64.474,82.327 63.940,82.472 63.705 C 82.543 63.590,82.323 63.260,81.982 62.972 L 81.363 62.448 81.893 63.074 C 82.898 64.260,82.013 63.695,79.967 61.841 C 78.839 60.819,77.991 59.861,78.083 59.712 C 78.175 59.563,78.107 59.530,77.931 59.639 C 77.561 59.867,75.596 58.466,75.807 58.125 C 75.884 57.999,75.801 57.806,75.622 57.695 C 75.419 57.570,75.371 57.615,75.495 57.815 C 75.818 58.337,75.564 58.213,72.979 56.581 C 59.588 48.131,43.156 45.989,28.486 50.780 C 23.786 52.315,15.815 56.786,13.307 59.294 C 13.015 59.586,12.635 59.739,12.464 59.633 C 12.293 59.528,12.230 59.565,12.323 59.716 C 12.541 60.069,10.190 62.392,9.904 62.106 C 9.786 61.988,9.731 62.079,9.782 62.309 C 9.833 62.540,9.710 62.692,9.506 62.650 C 9.300 62.607,9.221 62.707,9.327 62.879 C 9.548 63.236,8.375 64.586,8.030 64.372 C 7.901 64.292,7.858 64.391,7.935 64.592 C 8.012 64.793,7.705 65.363,7.252 65.858 C 6.799 66.354,6.486 66.759,6.555 66.759 C 6.625 66.759,6.226 67.445,5.670 68.284 C 5.113 69.122,4.550 69.741,4.418 69.660 C 4.287 69.579,4.248 69.693,4.333 69.915 C 4.520 70.401,2.859 73.794,2.533 73.593 C 2.407 73.515,2.338 73.765,2.380 74.149 C 2.427 74.577,2.223 75.075,1.854 75.434 C 1.523 75.757,1.408 75.932,1.599 75.824 C 1.966 75.617,2.083 75.988,1.755 76.317 C 1.649 76.423,1.524 76.759,1.477 77.064 C 1.431 77.369,1.108 78.774,0.761 80.186 C 0.010 83.237,-0.222 89.750,0.293 93.324 C 0.469 94.548,0.632 95.800,0.654 96.106 C 0.677 96.412,0.761 96.725,0.842 96.801 C 0.923 96.878,1.220 97.691,1.504 98.609 C 1.787 99.527,2.082 100.466,2.159 100.695 C 2.243 100.944,2.110 100.888,1.830 100.556 C 1.366 100.007,1.364 100.008,1.655 100.610 C 1.817 100.946,2.077 101.299,2.233 101.396 C 2.657 101.657,4.173 104.774,3.974 104.973 C 3.879 105.068,3.948 105.146,4.126 105.146 C 4.305 105.146,4.451 105.279,4.451 105.441 C 4.451 105.603,4.306 105.646,4.129 105.537 C 3.929 105.413,3.884 105.461,4.010 105.664 C 4.120 105.843,4.317 105.924,4.446 105.844 C 4.754 105.654,5.930 107.560,5.717 107.903 C 5.628 108.049,5.701 108.258,5.880 108.369 C 6.083 108.494,6.131 108.449,6.007 108.249 C 5.558 107.521,6.302 107.995,6.815 108.762 C 7.121 109.220,7.465 109.595,7.580 109.596 C 7.695 109.596,7.789 109.729,7.789 109.891 C 7.789 110.053,7.632 110.097,7.441 109.990 C 7.185 109.845,7.188 109.895,7.455 110.182 C 7.654 110.395,7.965 110.570,8.146 110.570 C 8.328 110.570,8.634 110.898,8.826 111.300 C 9.018 111.701,9.396 112.195,9.664 112.399 C 10.080 112.714,10.101 112.711,9.805 112.379 C 9.167 111.663,9.448 111.438,10.153 112.100 C 10.535 112.459,10.848 112.919,10.848 113.122 C 10.848 113.325,10.942 113.465,11.057 113.433 C 11.497 113.309,13.436 114.449,13.554 114.900 C 13.639 115.223,13.861 115.326,14.254 115.223 C 14.645 115.121,14.766 115.176,14.631 115.394 C 14.504 115.599,14.645 115.716,15.021 115.716 C 15.345 115.716,15.538 115.833,15.450 115.975 C 15.362 116.118,15.437 116.325,15.616 116.435 C 15.819 116.561,15.867 116.516,15.743 116.316 C 15.634 116.139,15.612 115.994,15.694 115.994 C 15.953 115.994,18.213 116.922,18.359 117.088 C 18.523 117.275,18.639 117.304,21.650 117.923 C 22.924 118.185,24.080 118.578,24.219 118.796 C 24.394 119.074,24.471 119.088,24.474 118.846 C 24.477 118.623,24.855 118.511,25.522 118.535 L 26.565 118.571 25.591 118.776 C 24.826 118.937,25.035 118.981,26.565 118.981 C 28.094 118.981,28.303 118.937,27.538 118.776 L 26.565 118.571 27.434 118.535 C 27.912 118.514,28.726 118.425,29.242 118.335 C 29.953 118.212,30.080 118.245,29.764 118.470 C 29.398 118.730,29.403 118.768,29.799 118.772 C 30.048 118.774,30.408 118.588,30.598 118.359 C 30.789 118.129,31.112 117.942,31.317 117.942 C 31.522 117.942,32.632 117.642,33.784 117.276 C 34.992 116.893,35.812 116.746,35.721 116.929 C 35.635 117.103,35.730 117.047,35.932 116.805 C 36.135 116.562,36.474 116.421,36.687 116.493 C 36.947 116.580,37.000 116.504,36.850 116.261 C 36.688 116.000,36.758 115.950,37.104 116.083 C 37.373 116.187,37.511 116.153,37.420 116.005 C 37.331 115.862,37.504 115.613,37.804 115.452 C 38.526 115.066,38.742 115.083,38.498 115.508 C 38.381 115.710,38.404 115.758,38.551 115.624 C 38.690 115.496,38.809 115.308,38.815 115.206 C 38.821 115.104,39.836 114.019,41.071 112.796 C 46.986 106.930,47.757 98.351,42.863 92.849 C 42.222 92.129,41.714 91.461,41.734 91.365 C 41.755 91.270,41.678 91.108,41.564 91.006 C 41.450 90.904,41.447 90.977,41.557 91.168 C 41.822 91.628,41.799 91.622,40.250 90.836 C 38.055 89.723,36.197 89.456,34.197 89.969 C 33.260 90.209,32.378 90.333,32.235 90.244 C 32.092 90.156,32.001 90.187,32.033 90.313 C 32.065 90.439,31.511 91.132,30.803 91.853 C 29.389 93.292,29.037 94.349,29.319 96.308 C 29.413 96.962,29.516 97.706,29.547 97.963 C 29.579 98.219,29.704 98.368,29.825 98.293 C 29.946 98.218,30.121 98.352,30.213 98.592 C 30.304 98.831,30.561 99.026,30.783 99.026 C 31.005 99.026,31.123 99.131,31.044 99.258 C 30.965 99.386,31.052 99.503,31.236 99.519 C 31.421 99.535,32.166 99.627,32.893 99.723 C 33.940 99.861,34.214 99.814,34.214 99.496 C 34.214 99.275,34.415 98.928,34.660 98.724 C 35.373 98.133,35.614 97.187,35.289 96.255 C 34.907 95.159,34.901 95.161,33.187 96.854 C 31.634 98.388,31.340 98.421,31.340 97.066 C 31.340 96.135,32.233 94.997,32.467 95.631 C 32.569 95.906,32.690 95.915,32.989 95.666 C 33.204 95.488,33.380 95.434,33.380 95.546 C 33.380 95.658,33.599 95.482,33.866 95.154 C 34.400 94.502,36.126 94.102,36.914 94.448 C 37.493 94.702,37.719 94.771,38.125 94.819 C 38.287 94.838,38.347 94.970,38.259 95.113 C 38.171 95.255,38.246 95.462,38.425 95.573 C 38.628 95.699,38.676 95.654,38.552 95.453 C 38.202 94.887,38.826 95.110,39.451 95.776 C 40.099 96.465,40.262 96.962,39.734 96.635 C 39.534 96.512,39.489 96.559,39.615 96.763 C 39.725 96.942,39.935 97.015,40.081 96.925 C 40.226 96.835,40.531 97.204,40.757 97.746 C 41.231 98.881,41.315 99.684,40.890 99.026 C 40.702 98.735,40.619 98.716,40.616 98.966 C 40.614 99.162,40.801 99.395,41.032 99.483 C 41.586 99.696,41.545 102.793,40.962 104.729 C 40.280 106.996,38.613 109.491,38.025 109.128 C 37.871 109.032,37.826 109.086,37.926 109.247 C 38.903 110.830,31.431 113.769,26.431 113.769 C 21.790 113.769,13.800 110.897,14.643 109.532 C 14.756 109.350,14.698 109.313,14.495 109.439 C 14.079 109.696,13.294 109.081,13.537 108.688 C 13.643 108.516,13.581 108.482,13.385 108.603 C 12.940 108.877,10.733 106.670,11.008 106.226 C 11.132 106.024,11.094 105.968,10.910 106.082 C 10.529 106.317,9.066 104.442,9.315 104.039 C 9.416 103.875,9.349 103.776,9.165 103.818 C 7.567 104.183,4.452 93.843,4.453 88.178 C 4.455 82.274,7.894 70.793,9.662 70.793 C 9.830 70.793,10.072 70.679,10.199 70.540 C 10.334 70.392,10.285 70.370,10.083 70.486 C 9.606 70.761,9.647 70.347,10.172 69.598 C 10.412 69.256,10.716 69.042,10.848 69.124 C 10.980 69.205,11.179 69.125,11.289 68.946 C 11.415 68.743,11.370 68.695,11.170 68.819 C 10.993 68.928,10.848 68.892,10.848 68.739 C 10.848 68.461,11.381 68.023,11.729 68.015 C 11.831 68.013,12.019 67.897,12.146 67.758 C 12.281 67.611,12.233 67.589,12.031 67.705 C 11.187 68.190,11.839 67.240,13.793 65.137 C 15.621 63.169,16.871 62.176,16.246 63.186 C 16.122 63.387,16.170 63.432,16.373 63.306 C 16.552 63.195,16.630 62.993,16.546 62.857 C 16.324 62.498,19.478 60.103,19.940 60.281 C 20.162 60.366,20.294 60.281,20.248 60.083 C 20.203 59.892,20.341 59.673,20.553 59.595 C 20.819 59.499,20.870 59.575,20.717 59.839 C 20.586 60.065,20.599 60.128,20.748 59.991 C 20.887 59.863,21.007 59.613,21.014 59.434 C 21.021 59.256,21.177 59.141,21.362 59.179 C 21.546 59.218,21.697 59.144,21.697 59.015 C 21.697 58.682,24.359 57.275,24.576 57.492 C 24.675 57.592,24.757 57.547,24.757 57.393 C 24.757 57.045,26.104 56.408,26.423 56.605 C 26.551 56.684,26.698 56.627,26.750 56.478 C 26.876 56.112,30.649 54.761,31.085 54.927 C 31.276 55.000,31.433 54.938,31.433 54.790 C 31.433 54.641,31.565 54.520,31.727 54.520 C 31.889 54.520,31.944 54.645,31.850 54.798 C 31.755 54.951,31.810 55.076,31.972 55.076 C 32.134 55.076,32.267 54.889,32.267 54.659 C 32.267 54.426,32.543 54.221,32.893 54.194 C 33.237 54.168,33.707 54.132,33.936 54.115 C 34.166 54.097,34.479 54.008,34.632 53.916 C 35.428 53.441,40.145 53.037,39.880 53.467 C 39.805 53.587,39.864 53.686,40.009 53.686 C 40.155 53.686,40.346 53.498,40.434 53.268 C 40.682 52.622,47.729 52.661,48.449 53.313 C 48.872 53.695,49.083 53.718,49.682 53.444 C 50.112 53.249,50.816 53.192,51.415 53.304 C 52.260 53.463,52.334 53.529,51.873 53.709 C 51.355 53.912,51.359 53.926,51.947 53.944 C 52.291 53.955,52.573 53.860,52.573 53.733 C 52.573 53.606,53.256 53.626,54.092 53.778 C 54.927 53.929,55.554 54.144,55.486 54.255 C 55.417 54.366,55.610 54.522,55.914 54.602 C 56.218 54.681,56.467 54.640,56.467 54.509 C 56.467 54.137,59.325 55.080,59.747 55.592 C 59.955 55.844,60.045 55.894,59.949 55.702 C 59.852 55.511,59.905 55.355,60.067 55.355 C 60.229 55.355,60.362 55.472,60.362 55.616 C 60.362 55.759,60.588 55.859,60.865 55.839 C 61.726 55.774,65.366 57.405,65.372 57.858 C 65.376 58.160,65.436 58.182,65.591 57.939 C 65.752 57.685,65.992 57.724,66.563 58.099 C 66.979 58.372,67.225 58.700,67.109 58.828 C 66.993 58.955,67.051 58.972,67.238 58.865 C 67.705 58.597,69.331 59.471,69.090 59.860 C 68.978 60.041,69.025 60.092,69.203 59.981 C 69.370 59.878,69.636 60.015,69.794 60.286 C 69.958 60.568,70.084 60.627,70.089 60.425 C 70.095 60.164,70.280 60.190,70.790 60.525 C 71.172 60.774,71.420 61.082,71.342 61.207 C 71.264 61.333,71.347 61.526,71.527 61.637 C 71.730 61.763,71.778 61.718,71.654 61.517 C 71.545 61.341,71.540 61.196,71.643 61.196 C 71.993 61.196,74.548 63.189,74.548 63.462 C 74.548 63.611,74.694 63.642,74.873 63.531 C 75.090 63.397,75.141 63.480,75.027 63.779 C 74.900 64.109,74.973 64.182,75.303 64.055 C 75.550 63.961,75.685 63.998,75.603 64.139 C 75.521 64.280,75.695 64.644,75.991 64.948 C 76.527 65.500,76.528 65.500,76.328 64.948 C 76.149 64.454,76.207 64.467,76.859 65.061 C 77.262 65.428,77.533 65.820,77.463 65.934 C 77.393 66.047,77.546 66.311,77.803 66.519 C 78.201 66.841,78.236 66.840,78.035 66.508 C 77.876 66.243,77.903 66.181,78.121 66.316 C 78.298 66.425,78.442 66.687,78.442 66.898 C 78.442 67.110,78.587 67.372,78.763 67.481 C 78.962 67.604,79.009 67.558,78.886 67.359 C 78.484 66.708,79.208 67.063,79.926 67.870 C 80.723 68.764,80.879 69.139,80.320 68.817 C 80.118 68.701,80.069 68.723,80.204 68.871 C 80.331 69.010,80.582 69.124,80.760 69.124 C 80.939 69.124,81.085 69.280,81.085 69.471 C 81.085 69.663,81.210 69.827,81.363 69.836 C 81.873 69.867,82.911 71.039,82.765 71.420 C 82.686 71.626,82.735 71.725,82.875 71.638 C 83.225 71.422,85.081 73.743,85.220 74.570 C 85.283 74.940,85.468 75.214,85.632 75.177 C 85.963 75.104,87.642 77.407,87.738 78.068 C 87.772 78.298,87.929 78.571,88.086 78.673 C 88.570 78.988,89.049 80.105,88.843 80.438 C 88.726 80.628,88.772 80.677,88.961 80.560 C 89.157 80.439,89.681 81.178,90.370 82.548 C 91.653 85.099,92.935 88.178,92.714 88.178 C 92.630 88.178,92.703 88.350,92.877 88.560 C 93.285 89.051,94.618 92.958,94.439 93.137 C 94.364 93.212,94.442 93.441,94.613 93.647 C 94.791 93.861,94.849 94.406,94.750 94.924 C 94.640 95.495,94.668 95.686,94.824 95.443 C 95.018 95.142,95.113 95.191,95.266 95.673 C 95.373 96.010,95.388 96.360,95.299 96.449 C 95.210 96.538,95.249 96.748,95.386 96.915 C 95.523 97.082,95.847 98.491,96.106 100.046 L 96.577 102.874 95.403 103.940 C 94.161 105.070,93.513 105.463,93.885 104.861 C 94.030 104.625,93.995 104.572,93.780 104.705 C 93.601 104.816,93.513 105.002,93.586 105.120 C 93.730 105.353,86.393 112.733,86.092 112.657 C 85.990 112.631,85.823 112.703,85.721 112.817 C 85.619 112.931,85.692 112.934,85.883 112.824 C 86.673 112.369,82.498 117.726,81.329 118.668 C 81.118 118.838,80.946 119.063,80.946 119.168 C 80.946 119.493,78.625 122.670,78.388 122.670 C 78.265 122.670,78.164 122.835,78.164 123.035 C 78.164 123.236,77.939 123.643,77.663 123.939 C 77.388 124.236,77.076 124.705,76.970 124.983 C 76.864 125.260,76.653 125.410,76.500 125.316 C 76.340 125.217,76.293 125.327,76.389 125.577 C 76.480 125.815,76.409 126.008,76.230 126.008 C 76.052 126.008,75.977 126.123,76.063 126.263 C 76.150 126.403,76.126 126.559,76.010 126.610 C 75.894 126.662,75.556 127.183,75.258 127.768 C 74.556 129.147,73.854 129.945,73.571 129.689 C 73.447 129.577,73.433 129.636,73.539 129.821 C 73.824 130.317,72.962 132.212,72.564 131.966 C 72.372 131.848,72.311 131.883,72.415 132.052 C 72.592 132.338,69.141 139.917,68.834 139.917 C 68.746 139.917,68.763 139.772,68.872 139.595 C 68.998 139.392,68.948 139.350,68.736 139.481 C 68.480 139.639,68.478 139.780,68.727 140.080 C 68.979 140.384,68.971 140.473,68.694 140.473 C 68.497 140.473,68.417 140.554,68.517 140.654 C 68.616 140.754,68.481 141.013,68.215 141.231 C 67.950 141.449,67.911 141.534,68.128 141.421 C 68.432 141.263,68.472 141.339,68.303 141.749 C 68.183 142.041,67.697 143.345,67.224 144.645 C 66.751 145.946,66.171 147.175,65.936 147.378 C 65.636 147.636,65.626 147.685,65.903 147.541 C 66.195 147.389,66.250 147.460,66.113 147.817 C 66.011 148.082,65.651 149.261,65.313 150.436 C 64.974 151.611,64.504 152.739,64.268 152.941 C 63.970 153.197,63.960 153.247,64.234 153.104 C 64.527 152.952,64.581 153.024,64.442 153.386 C 64.339 153.654,64.178 154.355,64.083 154.945 C 63.989 155.534,63.739 156.082,63.528 156.163 C 63.316 156.244,63.145 156.471,63.148 156.667 C 63.151 156.920,63.238 156.902,63.448 156.606 C 63.676 156.286,63.705 156.368,63.576 156.963 C 62.564 161.590,61.766 167.399,61.580 171.488 C 61.496 173.324,61.364 175.014,61.285 175.243 C 61.080 175.842,61.024 181.363,61.224 181.363 C 61.316 181.363,61.465 183.022,61.556 185.049 C 61.718 188.670,62.411 193.931,63.283 198.152 C 63.526 199.328,63.637 200.432,63.530 200.606 C 63.411 200.798,63.460 200.844,63.657 200.722 C 63.854 200.600,63.979 200.718,63.982 201.027 C 63.984 201.303,64.057 201.843,64.145 202.225 C 64.270 202.771,64.240 202.831,64.006 202.503 C 63.795 202.207,63.707 202.190,63.704 202.443 C 63.701 202.639,63.875 202.866,64.089 202.949 C 64.623 203.153,64.858 204.199,64.475 204.660 C 64.240 204.945,64.246 205.017,64.502 204.953 C 64.715 204.900,65.280 206.192,66.018 208.421 L 67.194 211.974 66.559 212.451 C 66.210 212.713,65.925 213.060,65.925 213.222 C 65.925 213.610,63.848 215.633,63.652 215.437 C 63.569 215.354,63.326 215.500,63.113 215.763 C 62.857 216.079,62.844 216.170,63.074 216.031 C 63.661 215.679,63.459 216.279,62.775 216.922 C 62.419 217.256,62.024 217.434,61.896 217.318 C 61.768 217.202,61.745 217.250,61.845 217.425 C 62.064 217.808,59.609 220.870,59.153 220.784 C 58.976 220.751,58.868 220.938,58.911 221.201 C 58.955 221.464,58.736 221.839,58.425 222.033 C 58.113 222.228,57.858 222.513,57.858 222.668 C 57.858 223.019,55.930 225.207,55.732 225.081 C 55.652 225.030,55.503 225.081,55.401 225.195 C 55.299 225.309,55.372 225.312,55.563 225.202 C 55.755 225.092,55.911 225.119,55.911 225.262 C 55.911 225.566,55.321 226.100,54.984 226.101 C 54.856 226.101,54.669 226.194,54.567 226.308 C 54.465 226.422,54.538 226.425,54.729 226.315 C 54.920 226.205,55.076 226.232,55.076 226.375 C 55.076 226.679,54.486 227.213,54.149 227.213 C 54.022 227.214,53.834 227.307,53.732 227.421 C 53.630 227.534,53.703 227.537,53.894 227.427 C 54.086 227.317,54.242 227.306,54.242 227.403 C 54.242 227.644,53.598 228.268,53.315 228.300 C 53.187 228.314,53.000 228.419,52.898 228.533 C 52.796 228.647,52.869 228.650,53.060 228.540 C 53.251 228.430,53.408 228.419,53.408 228.515 C 53.408 228.757,52.763 229.380,52.480 229.413 C 52.353 229.427,52.165 229.532,52.063 229.646 C 51.961 229.760,52.034 229.763,52.225 229.653 C 52.733 229.360,52.652 229.706,51.995 230.628 C 51.678 231.074,51.304 231.369,51.164 231.282 C 51.025 231.196,50.975 231.293,51.053 231.497 C 51.132 231.702,50.974 232.122,50.702 232.431 C 50.431 232.740,50.064 233.236,49.887 233.534 C 49.710 233.832,49.454 234.052,49.319 234.025 C 49.183 233.997,49.055 234.204,49.034 234.485 C 48.976 235.251,45.866 239.791,45.539 239.589 C 45.375 239.487,45.340 239.551,45.456 239.740 C 45.704 240.140,44.590 242.015,44.157 241.927 C 43.986 241.892,43.838 242.176,43.828 242.558 C 43.819 242.940,43.665 243.253,43.486 243.253 C 43.308 243.254,43.057 243.368,42.930 243.508 C 42.795 243.655,42.844 243.677,43.046 243.561 C 43.237 243.451,43.394 243.493,43.394 243.655 C 43.394 243.817,43.268 243.950,43.115 243.950 C 42.962 243.950,42.869 244.101,42.907 244.285 C 42.945 244.469,42.830 244.626,42.652 244.633 C 42.473 244.640,42.223 244.759,42.096 244.899 C 41.961 245.046,42.009 245.068,42.211 244.952 C 42.668 244.689,42.650 244.914,42.135 245.911 C 41.901 246.362,41.568 246.732,41.393 246.732 C 41.218 246.732,41.154 246.810,41.250 246.906 C 41.539 247.195,40.617 248.715,40.279 248.506 C 40.095 248.392,40.048 248.441,40.162 248.625 C 40.388 248.992,39.021 251.820,38.711 251.628 C 38.594 251.555,38.328 251.770,38.119 252.104 C 37.777 252.655,37.784 252.677,38.193 252.338 C 38.442 252.132,37.306 254.720,35.668 258.087 C 33.752 262.025,32.605 264.095,32.452 263.886 C 32.306 263.686,32.282 263.768,32.390 264.096 C 32.633 264.837,30.320 270.248,29.970 269.758 C 29.797 269.517,29.761 269.609,29.857 270.046 C 30.034 270.847,28.115 275.984,27.728 275.745 C 27.575 275.651,27.539 275.715,27.647 275.890 C 27.755 276.064,27.100 278.430,26.192 281.149 C 25.284 283.868,24.253 287.093,23.901 288.317 C 23.549 289.541,23.096 290.643,22.896 290.765 C 22.695 290.887,22.533 291.138,22.536 291.321 C 22.538 291.525,22.645 291.493,22.809 291.238 C 23.220 290.603,23.148 291.049,22.418 293.687 C 22.050 295.017,21.467 297.357,21.122 298.887 C 20.778 300.417,20.328 301.769,20.123 301.891 C 19.918 302.014,19.752 302.264,19.754 302.448 C 19.757 302.652,19.863 302.620,20.028 302.364 C 20.445 301.719,20.382 302.381,19.737 305.424 C 19.429 306.878,19.124 308.442,19.060 308.901 C 18.995 309.360,18.682 311.426,18.365 313.491 C 17.519 318.991,16.748 326.634,16.527 331.711 C 16.421 334.159,16.298 336.349,16.255 336.579 C 16.212 336.808,16.165 339.249,16.151 342.003 C 16.133 345.346,16.035 346.871,15.855 346.592 C 15.690 346.337,15.584 346.305,15.581 346.509 C 15.579 346.693,15.749 346.943,15.959 347.065 C 16.252 347.236,16.376 348.485,16.489 352.434 C 16.571 355.264,16.539 357.204,16.418 356.745 L 16.199 355.911 16.166 356.685 C 16.148 357.110,16.304 357.524,16.512 357.604 C 16.882 357.746,17.138 359.644,17.390 364.117 C 17.459 365.344,17.417 365.702,17.258 365.229 C 17.029 364.550,17.023 364.549,16.996 365.169 C 16.980 365.518,17.139 365.869,17.347 365.949 C 17.591 366.042,17.847 367.006,18.066 368.652 C 18.253 370.059,18.594 372.194,18.824 373.397 C 19.126 374.973,19.158 375.668,18.940 375.886 C 18.773 376.053,18.639 376.321,18.641 376.481 C 18.644 376.642,18.767 376.586,18.915 376.356 C 19.155 375.985,19.186 375.985,19.193 376.356 C 19.197 376.586,19.264 377.086,19.342 377.469 C 19.468 378.090,19.453 378.105,19.200 377.608 C 18.975 377.166,18.950 377.252,19.081 378.025 C 19.171 378.561,19.421 379.138,19.637 379.307 C 19.852 379.477,20.028 379.835,20.028 380.102 C 20.028 380.369,20.203 381.294,20.418 382.157 C 21.048 384.697,21.217 386.027,20.846 385.535 C 20.581 385.184,20.558 385.198,20.697 385.628 C 20.788 385.908,20.871 386.346,20.882 386.601 C 20.898 386.994,20.933 386.986,21.104 386.550 C 21.242 386.199,21.601 387.217,22.229 389.740 C 22.737 391.778,23.638 395.066,24.233 397.048 C 25.440 401.075,25.406 400.925,25.061 400.711 C 24.922 400.626,24.877 400.817,24.960 401.136 C 25.050 401.479,25.188 401.593,25.299 401.414 C 25.401 401.248,26.083 402.833,26.813 404.937 C 28.520 409.854,28.522 409.861,28.164 409.640 C 27.976 409.523,27.924 409.668,28.020 410.037 C 28.119 410.415,28.242 410.504,28.372 410.293 C 28.494 410.096,28.752 410.416,29.029 411.110 C 29.577 412.479,29.587 412.602,29.138 412.374 C 28.946 412.277,29.007 412.376,29.272 412.594 C 29.538 412.812,29.673 413.071,29.574 413.171 C 29.474 413.270,29.560 413.352,29.764 413.352 C 29.968 413.352,30.052 413.434,29.951 413.535 C 29.851 413.636,29.886 413.860,30.030 414.033 C 30.585 414.702,32.258 418.983,32.084 419.289 C 31.983 419.466,32.003 419.517,32.128 419.403 C 32.424 419.135,33.445 421.403,33.254 421.902 C 33.173 422.111,33.213 422.217,33.342 422.137 C 33.471 422.058,33.720 422.307,33.895 422.692 C 34.292 423.563,34.296 423.727,33.913 423.491 C 33.747 423.388,33.813 423.694,34.059 424.170 C 34.305 424.645,34.570 425.035,34.648 425.035 C 34.726 425.035,34.656 424.784,34.492 424.478 C 34.329 424.172,34.259 423.922,34.339 423.922 C 34.640 423.922,35.914 426.778,35.775 427.140 C 35.695 427.349,35.768 427.606,35.938 427.711 C 36.136 427.834,36.175 427.762,36.045 427.512 C 35.933 427.297,36.040 427.365,36.281 427.663 C 36.523 427.961,36.652 428.420,36.569 428.682 C 36.485 428.945,36.566 429.253,36.749 429.366 C 36.959 429.496,37.009 429.453,36.883 429.250 C 36.774 429.074,36.744 428.929,36.816 428.929 C 37.129 428.929,40.891 436.491,40.718 436.771 C 40.604 436.955,40.652 437.004,40.833 436.892 C 41.002 436.788,41.272 436.948,41.432 437.248 C 41.819 437.969,41.801 438.185,41.377 437.941 C 41.175 437.825,41.126 437.847,41.261 437.994 C 41.389 438.134,41.608 438.248,41.748 438.248 C 41.888 438.248,41.992 438.359,41.979 438.495 C 41.966 438.631,42.081 438.819,42.235 438.915 C 42.389 439.010,42.556 439.263,42.606 439.479 C 42.657 439.694,42.917 440.100,43.185 440.380 C 43.730 440.951,43.847 441.588,43.351 441.281 C 43.150 441.157,43.105 441.205,43.231 441.408 C 43.341 441.587,43.535 441.670,43.661 441.592 C 43.984 441.393,44.822 442.755,44.726 443.324 C 44.681 443.585,44.806 443.801,45.003 443.805 C 45.359 443.811,45.885 444.441,45.893 444.870 C 45.895 444.994,45.741 445.005,45.549 444.895 C 45.347 444.779,45.299 444.801,45.433 444.948 C 45.561 445.088,45.811 445.205,45.990 445.208 C 46.168 445.212,46.297 445.430,46.276 445.692 C 46.255 445.955,46.335 446.109,46.454 446.036 C 46.573 445.962,46.872 446.209,47.118 446.585 C 47.656 447.405,47.688 447.669,47.218 447.399 C 47.016 447.283,46.968 447.305,47.102 447.452 C 47.230 447.591,47.449 447.705,47.589 447.705 C 47.729 447.705,47.813 447.808,47.775 447.933 C 47.736 448.059,47.924 448.284,48.192 448.434 C 48.460 448.584,48.679 448.841,48.679 449.005 C 48.679 449.185,48.487 449.153,48.192 448.921 C 47.751 448.575,47.741 448.585,48.087 449.026 C 48.297 449.294,48.641 449.513,48.852 449.513 C 49.063 449.513,49.235 449.646,49.235 449.808 C 49.235 449.970,49.079 450.012,48.887 449.902 C 48.685 449.786,48.637 449.808,48.771 449.955 C 48.899 450.095,49.149 450.212,49.328 450.215 C 49.506 450.219,49.635 450.437,49.614 450.699 C 49.593 450.962,49.688 451.107,49.825 451.022 C 49.962 450.938,50.157 451.096,50.259 451.373 C 50.361 451.651,50.611 451.978,50.814 452.100 C 51.016 452.222,51.182 452.450,51.182 452.607 C 51.182 452.763,51.339 453.065,51.530 453.279 C 52.634 454.510,52.894 455.016,52.225 454.631 C 52.023 454.515,51.975 454.537,52.109 454.684 C 52.237 454.823,52.477 454.937,52.643 454.937 C 52.808 454.937,53.002 455.111,53.073 455.324 C 53.159 455.581,53.082 455.637,52.844 455.489 C 52.608 455.344,52.555 455.379,52.688 455.594 C 52.799 455.774,52.997 455.854,53.127 455.773 C 53.442 455.579,54.680 457.333,54.569 457.816 C 54.522 458.023,54.602 458.118,54.748 458.028 C 55.093 457.815,55.732 458.585,55.510 458.945 C 55.416 459.097,55.619 459.371,55.961 459.554 C 56.624 459.909,57.555 460.909,57.571 461.282 C 57.576 461.406,57.424 461.413,57.232 461.298 C 56.993 461.155,57.003 461.235,57.264 461.557 C 57.472 461.814,57.741 461.964,57.860 461.890 C 58.149 461.712,61.353 465.693,61.256 466.112 C 61.215 466.292,61.329 466.531,61.510 466.642 C 61.733 466.780,61.766 466.720,61.613 466.455 C 61.490 466.240,61.783 466.432,62.266 466.881 C 63.260 467.807,63.477 468.519,62.517 467.707 L 61.892 467.177 62.423 467.804 C 62.715 468.149,63.020 468.366,63.100 468.286 C 63.281 468.105,65.090 469.832,65.090 470.186 C 65.090 470.328,64.871 470.272,64.604 470.062 C 64.164 469.717,64.153 469.727,64.491 470.158 C 64.697 470.421,65.010 470.609,65.187 470.575 C 65.363 470.542,65.476 470.671,65.438 470.862 C 65.400 471.054,65.564 471.210,65.802 471.210 C 66.059 471.210,66.155 471.341,66.037 471.531 C 65.922 471.718,65.960 471.777,66.129 471.673 C 66.437 471.483,70.097 475.392,70.097 475.911 C 70.097 476.079,70.244 476.186,70.423 476.147 C 70.602 476.109,71.003 476.453,71.315 476.912 C 71.626 477.371,72.386 478.126,73.002 478.590 C 73.619 479.054,74.261 479.711,74.430 480.049 C 74.599 480.387,74.797 480.604,74.871 480.530 C 74.945 480.456,75.372 480.800,75.820 481.295 L 76.634 482.195 75.800 481.501 L 74.965 480.807 75.621 481.552 C 75.981 481.961,76.436 482.235,76.631 482.160 C 76.826 482.085,77.464 482.608,78.049 483.321 C 78.634 484.035,79.412 484.733,79.779 484.872 C 80.200 485.033,80.389 485.275,80.291 485.530 C 80.205 485.753,80.275 486.021,80.445 486.126 C 80.632 486.242,80.675 486.190,80.555 485.996 C 80.446 485.819,80.467 485.675,80.603 485.675 C 80.939 485.675,82.058 486.892,82.058 487.258 C 82.058 487.421,82.277 487.719,82.545 487.922 C 82.959 488.235,82.980 488.232,82.684 487.900 C 82.052 487.191,82.324 486.956,83.020 487.610 C 83.395 487.963,83.677 488.392,83.646 488.563 C 83.614 488.734,83.776 488.845,84.006 488.809 C 84.235 488.774,85.005 489.275,85.717 489.922 C 86.428 490.569,87.220 491.224,87.477 491.377 C 87.733 491.530,87.931 491.751,87.915 491.869 C 87.874 492.196,88.568 492.865,88.802 492.723 C 89.109 492.538,90.952 494.019,90.881 494.393 C 90.848 494.570,90.981 494.682,91.177 494.643 C 91.636 494.549,94.615 496.791,94.429 497.091 C 94.352 497.217,94.435 497.410,94.614 497.520 C 94.818 497.646,94.865 497.601,94.741 497.400 C 94.632 497.224,94.669 497.079,94.824 497.079 C 94.978 497.079,95.205 497.258,95.327 497.477 C 95.449 497.695,95.612 497.856,95.688 497.833 C 95.999 497.740,98.471 499.635,98.332 499.859 C 98.250 499.992,98.329 500.191,98.509 500.302 C 98.712 500.428,98.760 500.383,98.636 500.182 C 98.309 499.654,98.677 499.808,100.277 500.870 C 101.113 501.425,101.735 501.980,101.659 502.103 C 101.583 502.225,101.648 502.405,101.804 502.501 C 101.959 502.597,102.086 502.540,102.086 502.374 C 102.086 502.199,102.377 502.264,102.779 502.527 C 103.160 502.777,103.409 503.084,103.331 503.210 C 103.253 503.336,103.336 503.529,103.515 503.640 C 103.719 503.766,103.767 503.721,103.643 503.520 C 103.367 503.075,103.653 503.119,104.458 503.647 C 104.834 503.893,105.060 504.225,104.962 504.385 C 104.857 504.554,104.916 504.593,105.102 504.478 C 105.498 504.233,107.093 505.138,107.093 505.607 C 107.093 505.794,107.238 506.037,107.414 506.146 C 107.613 506.269,107.660 506.222,107.537 506.024 C 107.290 505.624,107.522 505.615,108.232 505.994 C 108.532 506.155,108.710 506.397,108.626 506.532 C 108.543 506.666,108.621 506.867,108.801 506.978 C 109.004 507.104,109.052 507.059,108.928 506.858 C 108.681 506.459,108.913 506.449,109.623 506.829 C 109.923 506.990,110.100 507.231,110.017 507.366 C 109.934 507.501,110.012 507.702,110.191 507.812 C 110.410 507.947,110.442 507.892,110.289 507.645 C 110.122 507.374,110.190 507.326,110.547 507.463 C 110.814 507.566,111.085 507.650,111.149 507.650 C 111.213 507.650,111.266 507.830,111.266 508.050 C 111.266 508.271,111.410 508.540,111.587 508.650 C 111.786 508.773,111.832 508.726,111.709 508.527 C 111.600 508.350,111.644 508.206,111.806 508.206 C 111.968 508.206,112.100 508.331,112.100 508.484 C 112.100 508.637,112.257 508.731,112.448 508.693 C 112.639 508.654,112.766 508.775,112.729 508.961 C 112.689 509.169,112.839 509.231,113.123 509.122 C 113.429 509.005,113.516 509.053,113.383 509.268 C 113.253 509.479,113.334 509.533,113.616 509.425 C 113.910 509.312,114.049 509.424,114.052 509.776 C 114.054 510.124,114.126 510.182,114.270 509.955 C 114.500 509.593,116.040 510.400,116.041 510.883 C 116.041 511.017,116.113 511.189,116.201 511.266 C 116.290 511.342,116.272 511.248,116.162 511.057 C 116.052 510.866,116.063 510.715,116.187 510.722 C 116.658 510.748,118.755 511.974,118.783 512.239 C 118.799 512.392,118.992 512.481,119.212 512.436 C 119.431 512.391,119.611 512.485,119.611 512.644 C 119.611 512.804,119.704 512.920,119.819 512.902 C 120.412 512.808,120.725 512.984,120.745 513.421 C 120.758 513.705,120.825 513.765,120.906 513.565 C 121.013 513.301,121.236 513.320,121.867 513.646 C 122.319 513.880,122.615 514.189,122.526 514.334 C 122.436 514.479,122.548 514.526,122.773 514.440 C 123.324 514.228,124.404 514.831,124.165 515.217 C 124.050 515.403,124.103 515.445,124.299 515.324 C 124.754 515.043,125.777 515.415,125.552 515.779 C 125.435 515.968,125.497 515.999,125.719 515.862 C 126.121 515.614,129.398 517.076,129.191 517.412 C 129.118 517.529,129.206 517.716,129.385 517.826 C 129.588 517.952,129.636 517.907,129.512 517.706 C 129.394 517.516,129.490 517.385,129.747 517.385 C 129.986 517.385,130.181 517.490,130.181 517.617 C 130.181 517.745,130.337 517.850,130.529 517.852 C 131.023 517.857,135.849 519.947,136.053 520.245 C 136.147 520.381,136.312 520.458,136.421 520.416 C 136.745 520.291,140.195 521.658,140.195 521.912 C 140.195 522.041,140.311 522.075,140.452 521.988 C 140.778 521.787,142.164 522.391,142.649 522.945 C 142.922 523.257,142.965 523.264,142.812 522.971 C 142.655 522.668,142.731 522.626,143.139 522.791 C 143.432 522.910,144.030 523.114,144.468 523.245 C 144.906 523.377,145.447 523.708,145.671 523.981 C 145.894 524.255,145.998 524.322,145.901 524.131 C 145.672 523.678,145.540 523.654,148.563 524.621 C 150.003 525.083,151.327 525.653,151.503 525.890 C 151.696 526.148,151.893 526.209,151.996 526.042 C 152.222 525.676,153.878 526.231,154.205 526.782 C 154.371 527.062,154.505 527.092,154.637 526.878 C 154.891 526.468,157.330 527.177,157.232 527.632 C 157.150 528.013,157.630 528.073,157.765 527.699 C 157.912 527.293,163.561 528.801,163.561 529.246 C 163.561 529.692,164.007 529.749,164.263 529.335 C 164.361 529.176,164.650 529.106,164.905 529.179 C 165.160 529.253,165.904 529.452,166.559 529.621 C 167.214 529.790,167.676 530.048,167.586 530.194 C 167.496 530.340,167.544 530.459,167.693 530.459 C 167.843 530.459,168.006 530.337,168.057 530.188 C 168.114 530.024,169.247 530.137,170.932 530.474 C 172.462 530.780,174.372 531.161,175.178 531.321 C 175.983 531.482,176.570 531.729,176.482 531.870 C 176.395 532.012,176.456 532.128,176.618 532.128 C 176.780 532.128,176.912 531.992,176.912 531.825 C 176.912 531.397,179.194 531.796,179.586 532.292 C 179.755 532.508,180.131 532.682,180.420 532.680 C 180.862 532.676,180.879 532.632,180.529 532.404 C 180.078 532.110,180.645 532.157,185.893 532.846 C 187.543 533.063,189.045 533.255,189.231 533.274 C 189.417 533.292,189.193 533.402,188.734 533.519 L 187.900 533.731 188.648 533.764 C 189.060 533.782,189.474 533.672,189.569 533.519 C 189.774 533.188,191.655 533.141,191.655 533.467 C 191.655 533.735,191.629 533.735,206.676 533.892 C 215.839 533.988,219.342 533.924,222.253 533.609 C 224.954 533.316,226.144 533.286,226.491 533.500 C 227.083 533.864,227.345 533.882,227.136 533.543 C 226.960 533.258,227.613 533.137,232.545 532.544 C 234.458 532.314,236.460 532.063,236.996 531.985 C 237.743 531.877,237.840 531.905,237.413 532.105 C 237.036 532.283,236.991 532.372,237.274 532.382 C 237.745 532.400,238.679 531.872,238.248 531.833 C 238.095 531.819,239.612 531.518,241.620 531.163 C 243.627 530.809,245.693 530.435,246.209 530.333 C 246.904 530.196,247.040 530.223,246.732 530.438 C 246.471 530.619,246.440 530.730,246.648 530.733 C 246.832 530.735,247.082 530.566,247.205 530.357 C 247.449 529.940,249.235 529.582,249.235 529.951 C 249.235 530.077,249.454 530.179,249.722 530.177 C 250.118 530.173,250.135 530.126,249.813 529.922 C 249.522 529.738,249.741 529.585,250.639 529.343 C 251.516 529.107,251.888 529.100,251.961 529.319 C 252.113 529.773,252.573 529.689,252.573 529.207 C 252.573 528.978,252.706 528.790,252.868 528.790 C 253.030 528.790,253.085 528.915,252.990 529.068 C 252.896 529.221,252.945 529.346,253.099 529.346 C 253.254 529.346,253.480 529.178,253.602 528.973 C 253.725 528.768,254.412 528.455,255.130 528.278 C 256.730 527.883,257.007 527.878,256.467 528.256 C 256.148 528.480,256.213 528.505,256.745 528.363 C 257.128 528.261,257.566 528.023,257.719 527.834 C 258.073 527.398,259.648 526.978,259.395 527.388 C 259.297 527.547,259.342 527.677,259.497 527.677 C 259.651 527.677,259.878 527.500,260.000 527.282 C 260.122 527.065,260.585 526.796,261.029 526.685 C 261.604 526.541,261.779 526.575,261.638 526.802 C 261.530 526.978,261.574 527.121,261.736 527.121 C 261.898 527.121,262.031 526.933,262.031 526.704 C 262.031 526.474,262.163 526.287,262.325 526.287 C 262.487 526.287,262.542 526.412,262.448 526.565 C 262.353 526.718,262.408 526.843,262.571 526.843 C 262.733 526.843,262.865 526.670,262.865 526.459 C 262.865 526.245,263.354 525.952,263.978 525.794 C 264.606 525.634,265.090 525.619,265.090 525.760 C 265.090 525.896,265.223 526.008,265.385 526.008 C 265.547 526.008,265.602 525.882,265.506 525.728 C 265.238 525.293,266.547 524.902,267.021 525.275 C 267.329 525.518,267.374 525.510,267.213 525.243 C 267.077 525.016,267.258 524.798,267.734 524.617 C 268.677 524.259,268.776 524.267,268.563 524.687 C 268.466 524.878,268.553 524.847,268.755 524.618 C 269.275 524.030,272.601 522.882,272.601 523.291 C 272.601 523.467,272.757 523.399,272.949 523.140 C 273.314 522.645,275.243 521.943,274.954 522.410 C 274.866 522.553,274.926 522.670,275.088 522.670 C 275.250 522.670,275.382 522.504,275.382 522.300 C 275.382 521.834,280.785 519.757,281.250 520.044 C 281.453 520.170,281.516 520.137,281.408 519.961 C 281.147 519.539,283.245 518.735,283.515 519.154 C 283.645 519.357,283.720 519.296,283.723 518.985 C 283.727 518.495,283.989 518.388,284.940 518.489 C 285.224 518.519,285.383 518.422,285.291 518.275 C 285.082 517.937,286.647 517.266,287.055 517.518 C 287.221 517.621,287.323 517.577,287.281 517.420 C 287.179 517.041,291.778 514.816,292.272 515.006 C 292.484 515.087,292.585 515.036,292.496 514.893 C 292.407 514.749,292.605 514.487,292.934 514.311 C 293.393 514.065,293.583 514.069,293.742 514.326 C 293.891 514.567,294.004 514.575,294.140 514.355 C 294.245 514.186,294.237 514.047,294.122 514.047 C 294.007 514.047,294.153 513.872,294.446 513.658 C 294.738 513.444,295.204 513.312,295.480 513.365 C 295.756 513.418,295.911 513.347,295.824 513.207 C 295.737 513.067,296.670 512.447,297.897 511.831 C 300.295 510.625,300.558 510.535,300.252 511.030 C 300.128 511.231,300.175 511.276,300.379 511.150 C 300.558 511.040,300.636 510.839,300.553 510.704 C 300.470 510.569,300.656 510.323,300.966 510.157 C 301.373 509.939,301.530 509.940,301.530 510.160 C 301.530 510.327,301.657 510.385,301.813 510.289 C 301.968 510.193,302.034 510.016,301.960 509.895 C 301.780 509.605,304.514 508.126,304.848 508.333 C 304.991 508.421,305.198 508.347,305.309 508.167 C 305.442 507.951,305.379 507.910,305.119 508.044 C 304.905 508.156,304.972 508.050,305.269 507.809 C 305.900 507.298,306.379 507.230,306.093 507.692 C 305.969 507.893,306.017 507.938,306.220 507.812 C 306.399 507.702,306.478 507.501,306.395 507.366 C 306.311 507.231,306.489 506.990,306.789 506.829 C 307.499 506.449,307.731 506.459,307.484 506.858 C 307.360 507.059,307.408 507.104,307.611 506.978 C 307.790 506.867,307.869 506.666,307.785 506.532 C 307.589 506.214,308.687 505.623,309.053 505.849 C 309.207 505.944,309.298 505.856,309.256 505.653 C 309.214 505.451,309.394 505.302,309.655 505.322 C 309.917 505.342,310.121 505.280,310.109 505.183 C 310.043 504.651,310.195 504.502,310.431 504.868 C 310.665 505.230,310.701 505.224,310.705 504.826 C 310.707 504.573,311.155 504.104,311.699 503.783 C 312.841 503.109,313.045 503.064,312.767 503.547 C 312.651 503.749,312.673 503.797,312.820 503.662 C 312.960 503.535,313.074 503.316,313.074 503.176 C 313.074 503.035,313.162 502.952,313.270 502.990 C 313.379 503.029,313.656 502.809,313.887 502.503 C 314.178 502.119,314.310 502.069,314.317 502.341 C 314.327 502.792,314.743 502.476,314.743 502.017 C 314.743 501.851,314.917 501.657,315.129 501.587 C 315.393 501.498,315.445 501.579,315.293 501.842 C 315.162 502.068,315.174 502.130,315.324 501.994 C 315.463 501.866,315.580 501.616,315.584 501.437 C 315.588 501.259,315.802 501.129,316.060 501.149 C 316.318 501.170,316.503 501.060,316.470 500.906 C 316.438 500.752,316.586 500.563,316.798 500.485 C 317.057 500.391,317.112 500.463,316.964 500.702 C 316.818 500.938,316.854 500.991,317.069 500.858 C 317.248 500.748,317.328 500.550,317.247 500.419 C 317.167 500.289,317.466 499.922,317.912 499.604 C 318.816 498.960,319.188 498.863,318.889 499.348 C 318.765 499.548,318.812 499.593,319.016 499.467 C 319.195 499.357,319.274 499.156,319.191 499.022 C 318.991 498.699,321.015 497.333,321.369 497.552 C 321.520 497.645,321.566 497.595,321.470 497.441 C 321.375 497.287,321.888 496.737,322.610 496.218 C 323.332 495.700,323.951 495.337,323.986 495.413 C 324.022 495.488,324.248 495.268,324.489 494.924 C 324.929 494.295,325.659 494.017,325.286 494.619 C 325.162 494.819,325.210 494.864,325.414 494.739 C 325.593 494.628,325.676 494.435,325.599 494.310 C 325.521 494.185,325.645 493.928,325.872 493.739 C 326.100 493.550,326.287 493.490,326.287 493.606 C 326.287 493.722,326.546 493.487,326.863 493.083 C 327.425 492.369,328.186 492.031,327.790 492.672 C 327.663 492.877,327.714 492.917,327.931 492.783 C 328.118 492.667,328.199 492.502,328.112 492.415 C 327.916 492.219,328.777 491.238,329.145 491.238 C 329.293 491.238,329.243 491.457,329.033 491.725 C 328.687 492.165,328.697 492.175,329.135 491.832 C 329.401 491.624,329.561 491.360,329.491 491.247 C 329.421 491.133,329.659 490.763,330.020 490.423 C 330.510 489.963,330.715 489.900,330.824 490.174 C 330.929 490.437,330.978 490.415,330.993 490.097 C 331.005 489.853,331.756 489.008,332.662 488.220 C 334.294 486.801,334.854 486.463,334.461 487.135 C 334.349 487.326,334.530 487.243,334.863 486.951 C 335.197 486.659,335.404 486.355,335.325 486.275 C 335.140 486.091,336.593 484.562,336.952 484.562 C 337.100 484.562,336.983 484.844,336.691 485.188 L 336.161 485.814 336.781 485.290 C 337.121 485.001,337.346 484.679,337.281 484.573 C 337.057 484.211,340.675 480.866,341.044 481.094 C 341.257 481.226,341.323 481.197,341.214 481.020 C 340.996 480.667,341.693 480.033,341.982 480.322 C 342.095 480.436,342.146 480.346,342.096 480.124 C 342.045 479.901,342.191 479.714,342.420 479.707 C 342.650 479.700,342.837 479.506,342.837 479.277 C 342.837 479.047,342.994 478.860,343.185 478.860 C 343.376 478.860,343.542 478.734,343.553 478.581 C 343.582 478.162,344.412 477.324,344.651 477.472 C 344.766 477.543,345.015 477.415,345.204 477.187 C 345.393 476.960,345.455 476.773,345.341 476.773 C 345.227 476.773,345.288 476.587,345.477 476.359 C 345.666 476.131,345.935 476.015,346.075 476.102 C 346.214 476.188,346.294 476.098,346.252 475.903 C 346.210 475.707,346.321 475.541,346.500 475.534 C 346.678 475.527,346.929 475.408,347.056 475.268 C 347.191 475.121,347.142 475.099,346.940 475.215 C 346.749 475.325,346.592 475.336,346.592 475.238 C 346.592 474.905,352.248 469.009,352.449 469.133 C 352.559 469.201,352.820 469.046,353.028 468.789 C 353.289 468.468,353.299 468.387,353.060 468.530 C 352.426 468.911,352.700 468.266,353.496 467.503 C 353.928 467.090,354.386 466.847,354.515 466.964 C 354.643 467.081,354.653 467.011,354.536 466.808 C 354.307 466.413,355.418 465.010,355.781 465.235 C 355.894 465.305,356.158 465.145,356.366 464.879 C 356.709 464.441,356.699 464.431,356.259 464.777 C 355.991 464.987,355.772 465.040,355.772 464.895 C 355.772 464.575,357.151 463.245,357.347 463.375 C 357.424 463.426,357.571 463.375,357.673 463.261 C 357.775 463.147,357.702 463.144,357.510 463.254 C 356.980 463.559,357.096 463.012,357.672 462.490 C 357.952 462.237,358.285 462.124,358.412 462.239 C 358.539 462.354,358.548 462.283,358.432 462.083 C 358.177 461.642,359.059 460.575,359.468 460.828 C 359.635 460.931,359.667 460.866,359.546 460.671 C 359.289 460.254,359.904 459.469,360.297 459.712 C 360.469 459.819,360.503 459.756,360.381 459.558 C 360.123 459.142,360.738 458.357,361.132 458.600 C 361.294 458.700,361.339 458.645,361.233 458.473 C 361.012 458.117,364.638 453.075,364.968 453.279 C 365.091 453.355,365.282 453.270,365.392 453.091 C 365.518 452.888,365.473 452.840,365.272 452.964 C 364.787 453.263,364.885 452.891,365.529 451.987 C 365.847 451.541,366.213 451.242,366.344 451.323 C 366.475 451.403,366.672 451.323,366.783 451.144 C 366.909 450.940,366.864 450.893,366.663 451.017 C 366.218 451.292,366.262 451.007,366.790 450.201 C 367.036 449.825,367.340 449.582,367.466 449.659 C 367.592 449.737,367.785 449.654,367.896 449.475 C 368.029 449.260,367.976 449.224,367.740 449.370 C 367.502 449.517,367.426 449.462,367.511 449.204 C 367.582 448.992,367.776 448.818,367.942 448.818 C 368.107 448.818,368.347 448.704,368.475 448.565 C 368.609 448.417,368.561 448.395,368.359 448.511 C 367.889 448.782,367.921 448.518,368.459 447.698 C 368.705 447.322,369.009 447.078,369.135 447.156 C 369.261 447.233,369.454 447.150,369.565 446.971 C 369.698 446.756,369.645 446.721,369.409 446.866 C 369.171 447.014,369.095 446.958,369.180 446.701 C 369.251 446.488,369.445 446.314,369.611 446.314 C 369.776 446.314,370.016 446.200,370.144 446.061 C 370.278 445.914,370.230 445.892,370.028 446.008 C 369.528 446.296,369.598 445.957,370.260 444.885 C 370.579 444.369,370.941 444.008,371.063 444.084 C 371.186 444.160,371.269 444.004,371.248 443.738 C 371.227 443.471,371.375 443.289,371.578 443.331 C 371.781 443.373,371.869 443.282,371.774 443.128 C 371.523 442.721,372.157 441.675,372.519 441.899 C 372.702 442.012,372.747 441.962,372.631 441.773 C 372.363 441.341,372.973 440.273,373.353 440.508 C 373.537 440.621,373.582 440.571,373.465 440.383 C 373.198 439.950,373.807 438.882,374.188 439.117 C 374.373 439.232,374.416 439.180,374.296 438.985 C 374.066 438.612,375.226 436.396,375.547 436.594 C 375.665 436.667,375.852 436.580,375.963 436.401 C 376.088 436.198,376.043 436.150,375.843 436.274 C 375.411 436.541,375.438 436.295,375.951 435.304 C 376.199 434.823,376.510 434.555,376.689 434.665 C 376.872 434.779,376.920 434.730,376.807 434.547 C 376.530 434.098,378.525 430.252,378.911 430.491 C 379.094 430.604,379.147 430.559,379.038 430.384 C 378.811 430.016,379.411 428.615,379.715 428.803 C 379.836 428.877,380.024 428.792,380.135 428.612 C 380.261 428.409,380.216 428.361,380.015 428.485 C 379.612 428.734,379.612 428.580,380.013 427.699 C 380.188 427.314,380.430 427.060,380.550 427.134 C 380.670 427.208,380.859 427.123,380.970 426.943 C 381.095 426.740,381.050 426.692,380.850 426.816 C 380.447 427.065,380.446 426.911,380.847 426.030 C 381.023 425.645,381.272 425.396,381.400 425.475 C 381.529 425.555,381.552 425.405,381.452 425.143 C 381.350 424.879,381.383 424.736,381.524 424.823 C 381.665 424.910,381.794 424.712,381.811 424.382 C 381.829 424.053,382.558 422.221,383.431 420.313 C 390.868 404.066,395.728 386.761,398.590 366.342 C 401.557 345.167,399.753 315.973,394.172 294.854 C 393.869 293.707,393.538 292.455,393.436 292.072 C 392.774 289.577,390.887 283.283,390.148 281.109 C 389.893 280.357,389.750 279.568,389.832 279.356 C 389.913 279.143,389.856 279.046,389.705 279.140 C 389.554 279.233,389.430 279.254,389.430 279.185 C 389.430 279.117,388.991 277.833,388.455 276.333 C 387.907 274.798,387.549 273.354,387.639 273.033 C 387.753 272.622,387.724 272.568,387.535 272.840 C 387.202 273.320,386.204 270.869,386.522 270.354 C 386.653 270.142,386.619 270.082,386.433 270.197 C 386.052 270.433,385.745 269.511,385.973 268.815 C 386.089 268.459,386.063 268.402,385.892 268.639 C 385.573 269.081,382.892 263.039,383.192 262.553 C 383.307 262.366,383.278 262.296,383.124 262.391 C 382.743 262.626,380.672 258.300,380.950 257.851 C 381.105 257.601,381.061 257.562,380.802 257.722 C 380.533 257.888,380.483 257.822,380.617 257.472 C 380.726 257.188,380.689 257.064,380.525 257.165 C 380.204 257.363,379.612 255.990,379.852 255.603 C 379.941 255.459,379.848 255.375,379.645 255.417 C 379.424 255.463,379.285 255.250,379.297 254.882 C 379.309 254.545,379.219 254.331,379.098 254.406 C 378.977 254.480,378.499 253.789,378.034 252.870 C 377.108 251.035,377.032 250.773,377.512 251.070 C 377.712 251.194,377.757 251.146,377.632 250.942 C 377.521 250.763,377.332 250.678,377.211 250.752 C 377.091 250.827,376.661 250.280,376.257 249.537 C 375.438 248.032,375.358 247.717,375.869 248.011 C 376.071 248.128,376.120 248.105,375.985 247.958 C 375.858 247.819,375.648 247.705,375.520 247.705 C 375.305 247.705,370.515 239.968,370.515 239.620 C 370.515 239.536,370.659 239.556,370.836 239.665 C 371.036 239.789,371.081 239.741,370.956 239.538 C 370.845 239.359,370.649 239.277,370.521 239.356 C 370.392 239.436,369.775 238.690,369.149 237.699 C 367.939 235.782,367.804 235.453,368.359 235.772 C 368.561 235.889,368.609 235.866,368.475 235.719 C 368.347 235.580,368.107 235.466,367.942 235.466 C 367.776 235.466,367.582 235.292,367.511 235.080 C 367.426 234.822,367.502 234.767,367.740 234.914 C 367.976 235.060,368.029 235.024,367.896 234.809 C 367.785 234.630,367.585 234.551,367.451 234.634 C 367.317 234.717,366.699 234.037,366.079 233.124 C 364.912 231.406,364.722 230.980,365.272 231.320 C 365.473 231.444,365.518 231.396,365.392 231.193 C 365.282 231.014,365.086 230.932,364.957 231.012 C 364.691 231.176,360.363 225.357,360.359 224.829 C 360.357 224.639,360.282 224.513,360.193 224.550 C 359.956 224.648,359.110 223.900,359.110 223.593 C 359.110 223.450,359.254 223.422,359.431 223.531 C 359.632 223.655,359.677 223.608,359.551 223.404 C 359.440 223.225,359.247 223.142,359.122 223.219 C 358.760 223.443,356.822 220.913,357.051 220.516 C 357.161 220.324,357.147 220.262,357.019 220.378 C 356.891 220.494,356.496 220.316,356.140 219.982 C 355.390 219.277,355.260 218.663,355.981 219.229 C 356.421 219.574,356.431 219.565,356.088 219.127 C 355.880 218.861,355.616 218.700,355.503 218.771 C 355.151 218.988,354.027 217.593,354.256 217.224 C 354.383 217.017,354.352 216.953,354.176 217.062 C 353.776 217.309,351.809 215.086,352.052 214.662 C 352.158 214.477,352.139 214.422,352.009 214.540 C 351.879 214.659,351.233 214.226,350.573 213.578 C 349.182 212.213,348.937 211.462,350.278 212.674 L 351.182 213.491 350.375 212.597 C 349.931 212.105,349.484 211.754,349.383 211.816 C 349.143 211.965,338.181 200.994,338.375 200.800 C 338.457 200.718,338.180 200.348,337.760 199.978 L 336.996 199.305 337.670 200.070 C 338.041 200.490,338.222 200.834,338.072 200.834 C 337.709 200.834,335.973 199.030,336.158 198.844 C 336.238 198.764,336.031 198.459,335.698 198.167 C 335.365 197.875,335.184 197.792,335.295 197.983 C 335.407 198.175,335.390 198.331,335.256 198.331 C 334.975 198.331,333.485 196.827,333.422 196.479 C 333.399 196.350,333.278 196.279,333.153 196.320 C 332.826 196.430,329.883 193.859,330.042 193.602 C 330.115 193.484,329.957 193.216,329.691 193.008 C 329.253 192.665,329.244 192.675,329.589 193.115 C 329.799 193.383,329.850 193.602,329.702 193.602 C 329.272 193.602,328.490 192.607,328.720 192.353 C 328.835 192.226,328.781 192.207,328.599 192.311 C 328.258 192.507,322.531 188.230,322.531 187.779 C 322.531 187.641,322.417 187.425,322.278 187.297 C 322.131 187.162,322.109 187.211,322.225 187.413 C 322.335 187.604,322.358 187.761,322.276 187.761 C 321.900 187.761,317.401 184.344,317.522 184.149 C 317.596 184.028,317.443 183.946,317.180 183.967 C 316.918 183.988,316.700 183.860,316.697 183.681 C 316.693 183.503,316.576 183.252,316.437 183.125 C 316.290 182.990,316.267 183.039,316.384 183.241 C 316.683 183.761,316.379 183.667,315.159 182.859 C 314.552 182.458,314.119 182.028,314.195 181.905 C 314.272 181.781,314.188 181.589,314.009 181.478 C 313.805 181.353,313.758 181.398,313.882 181.598 C 314.157 182.044,313.872 181.999,313.066 181.472 C 312.691 181.225,312.443 180.927,312.517 180.808 C 312.590 180.689,312.436 180.608,312.173 180.629 C 311.911 180.650,311.693 180.522,311.690 180.343 C 311.686 180.165,311.569 179.914,311.430 179.787 C 311.283 179.652,311.260 179.701,311.377 179.903 C 311.621 180.327,311.405 180.344,310.683 179.958 C 310.383 179.798,310.206 179.556,310.289 179.421 C 310.372 179.286,310.294 179.086,310.115 178.975 C 309.911 178.849,309.863 178.894,309.987 179.095 C 310.097 179.271,310.129 179.416,310.060 179.416 C 309.720 179.416,303.338 175.465,303.338 175.254 C 303.338 175.121,303.224 174.907,303.085 174.780 C 302.938 174.645,302.915 174.694,303.032 174.896 C 303.341 175.433,303.052 175.330,300.821 174.105 C 299.680 173.479,298.816 172.855,298.901 172.718 C 298.986 172.580,298.841 172.551,298.578 172.651 C 298.229 172.785,298.162 172.736,298.328 172.466 C 298.476 172.228,298.448 172.164,298.251 172.286 C 297.895 172.506,290.378 168.833,290.565 168.531 C 290.634 168.419,290.544 168.237,290.365 168.126 C 290.152 167.995,290.114 168.046,290.256 168.276 C 290.542 168.739,289.651 168.464,287.622 167.461 C 286.780 167.045,284.500 166.041,282.555 165.230 C 280.539 164.390,279.092 163.635,279.190 163.476 C 279.290 163.313,279.222 163.283,279.027 163.404 C 278.576 163.683,272.288 161.338,272.513 160.975 C 272.611 160.816,272.549 160.778,272.372 160.888 C 272.198 160.995,269.770 160.348,266.974 159.450 C 264.179 158.553,260.296 157.393,258.345 156.873 C 255.521 156.121,254.798 155.829,254.798 155.444 C 254.798 153.461,250.665 141.830,247.826 135.822 C 246.922 133.908,246.262 132.212,246.360 132.053 C 246.459 131.894,246.406 131.846,246.244 131.947 C 245.869 132.178,243.577 128.056,243.842 127.626 C 243.955 127.444,243.912 127.390,243.739 127.497 C 243.575 127.598,243.180 127.258,242.861 126.742 C 242.199 125.670,242.128 125.331,242.629 125.619 C 242.831 125.736,242.879 125.713,242.745 125.566 C 242.617 125.427,242.406 125.313,242.275 125.313 C 242.046 125.313,238.665 120.609,238.665 120.291 C 238.665 120.205,238.809 120.223,238.986 120.333 C 239.187 120.457,239.232 120.409,239.106 120.205 C 238.995 120.026,238.802 119.943,238.677 120.021 C 238.551 120.098,238.122 119.733,237.722 119.209 C 236.946 118.191,236.797 117.786,237.317 118.107 C 237.518 118.231,237.563 118.183,237.437 117.980 C 237.326 117.801,237.138 117.714,237.020 117.788 C 236.901 117.861,235.908 116.864,234.814 115.571 C 232.886 113.296,232.474 112.686,233.145 113.100 C 233.345 113.224,233.390 113.176,233.264 112.973 C 233.154 112.794,232.969 112.705,232.854 112.776 C 232.740 112.847,231.215 111.459,229.466 109.691 C 225.973 106.161,221.771 102.437,218.520 99.990 C 217.364 99.119,216.481 98.305,216.558 98.180 C 216.636 98.055,216.552 97.862,216.373 97.751 C 216.170 97.625,216.122 97.670,216.246 97.871 C 216.355 98.047,216.373 98.192,216.286 98.192 C 215.888 98.192,211.434 95.032,211.555 94.836 C 211.630 94.714,211.545 94.524,211.366 94.413 C 211.163 94.287,211.115 94.332,211.239 94.533 C 211.564 95.058,211.224 94.918,208.900 93.568 C 207.667 92.851,206.764 92.154,206.863 91.995 C 206.960 91.837,206.910 91.789,206.750 91.888 C 206.590 91.986,204.537 91.142,202.187 90.011 C 191.963 85.094,181.681 82.055,171.488 80.941 C 169.805 80.756,168.291 80.569,168.124 80.523 C 167.749 80.421,165.277 74.660,164.306 71.627 C 161.782 63.742,160.827 55.460,161.613 48.261 C 161.991 44.804,162.781 40.613,163.027 40.765 C 163.139 40.834,163.172 40.669,163.102 40.398 C 162.542 38.259,167.697 27.403,171.694 22.301 C 174.193 19.111,179.269 14.068,178.138 15.898 C 178.014 16.099,178.061 16.144,178.265 16.018 C 178.444 15.907,178.530 15.719,178.455 15.598 C 178.274 15.305,179.545 14.130,179.784 14.369 C 179.888 14.473,179.972 14.404,179.972 14.216 C 179.972 14.029,180.117 13.965,180.293 14.074 C 180.484 14.192,180.539 14.151,180.429 13.972 C 180.327 13.808,180.610 13.412,181.058 13.093 C 181.655 12.668,181.909 12.607,182.013 12.863 C 182.100 13.081,182.162 13.035,182.176 12.742 C 182.188 12.483,182.476 12.076,182.816 11.838 C 183.560 11.316,183.977 11.275,183.690 11.752 C 183.548 11.989,183.632 11.978,183.952 11.718 C 184.504 11.271,184.573 11.017,184.075 11.270 C 183.884 11.367,183.974 11.246,184.276 11.002 C 184.577 10.758,184.991 10.622,185.194 10.700 C 185.398 10.778,185.491 10.724,185.402 10.579 C 185.312 10.434,185.650 10.103,186.152 9.844 C 186.868 9.474,187.005 9.459,186.787 9.775 C 186.634 9.998,186.713 9.960,186.961 9.691 C 187.210 9.423,187.492 9.281,187.587 9.377 C 187.683 9.472,187.761 9.391,187.761 9.196 C 187.761 8.990,187.942 8.911,188.192 9.007 C 188.430 9.098,188.559 9.068,188.479 8.939 C 188.400 8.810,188.635 8.567,189.003 8.400 C 189.503 8.172,189.705 8.179,189.807 8.429 C 189.885 8.621,189.951 8.568,189.964 8.303 C 189.976 8.050,190.330 7.718,190.751 7.566 C 191.172 7.414,191.766 7.197,192.072 7.084 L 192.629 6.879 192.072 7.349 C 191.522 7.814,191.522 7.816,192.118 7.529 C 192.449 7.369,192.761 7.125,192.813 6.986 C 192.958 6.594,195.790 5.834,195.977 6.136 C 196.208 6.511,196.675 6.460,196.592 6.069 C 196.552 5.879,197.158 5.594,198.031 5.393 C 199.773 4.992,204.237 4.621,202.921 4.987 C 202.173 5.195,202.231 5.222,203.477 5.248 C 204.469 5.268,204.748 5.199,204.451 5.007 C 204.149 4.812,204.405 4.736,205.371 4.733 C 206.193 4.730,206.642 4.836,206.537 5.007 C 206.432 5.176,206.834 5.283,207.564 5.281 C 208.489 5.278,208.667 5.209,208.345 4.980 C 208.033 4.758,208.208 4.723,209.040 4.842 C 209.652 4.929,210.505 5.002,210.934 5.004 C 211.454 5.006,211.649 5.115,211.517 5.328 C 211.392 5.531,211.441 5.574,211.650 5.444 C 212.081 5.178,214.233 5.540,214.044 5.847 C 213.964 5.976,214.046 6.172,214.225 6.282 C 214.428 6.408,214.476 6.363,214.352 6.163 C 214.032 5.644,214.805 5.781,217.433 6.707 C 220.677 7.852,222.603 8.838,222.360 9.232 C 222.244 9.420,222.293 9.466,222.483 9.349 C 222.885 9.100,223.991 9.678,223.776 10.025 C 223.685 10.172,223.823 10.206,224.092 10.103 C 224.393 9.987,224.502 10.028,224.388 10.213 C 224.288 10.375,224.417 10.678,224.674 10.886 C 224.996 11.147,225.076 11.157,224.933 10.918 C 224.602 10.368,225.043 10.510,226.052 11.280 C 226.563 11.670,226.992 12.202,227.004 12.462 C 227.018 12.756,227.079 12.802,227.167 12.584 C 227.255 12.367,228.080 12.994,229.341 14.237 C 230.459 15.338,231.316 16.391,231.245 16.576 C 231.174 16.761,231.270 17.006,231.457 17.122 C 231.694 17.269,231.726 17.215,231.561 16.941 C 231.360 16.608,231.396 16.608,231.809 16.943 C 232.081 17.164,232.220 17.525,232.126 17.769 C 232.034 18.008,232.048 18.114,232.157 18.005 C 232.452 17.710,233.090 18.342,232.927 18.768 C 232.849 18.971,232.938 19.232,233.126 19.347 C 233.358 19.491,233.400 19.433,233.259 19.167 C 233.146 18.952,233.312 19.089,233.628 19.471 C 233.943 19.854,234.205 20.386,234.208 20.654 C 234.211 20.921,234.335 21.140,234.484 21.140 C 234.632 21.140,234.679 21.333,234.589 21.569 C 234.489 21.828,234.560 21.966,234.769 21.917 C 235.207 21.814,236.586 24.999,237.310 27.784 C 238.253 31.415,238.228 37.933,237.265 39.092 C 237.120 39.268,237.063 39.473,237.139 39.549 C 237.214 39.625,237.134 40.095,236.961 40.594 C 236.723 41.276,236.580 41.407,236.385 41.126 C 236.201 40.861,236.173 40.924,236.289 41.338 C 236.483 42.035,236.206 42.898,235.857 42.682 C 235.722 42.599,235.682 42.715,235.769 42.940 C 235.961 43.442,235.393 44.580,235.054 44.370 C 234.919 44.287,234.718 44.366,234.608 44.545 C 234.482 44.748,234.527 44.796,234.728 44.672 C 235.326 44.302,235.050 44.918,233.992 46.314 C 233.413 47.079,232.788 47.705,232.603 47.705 C 232.418 47.705,232.256 47.830,232.243 47.983 C 232.201 48.484,231.655 48.955,231.331 48.770 C 231.158 48.671,231.110 48.694,231.226 48.821 C 232.312 50.018,224.450 53.670,220.763 53.682 C 218.458 53.689,214.221 52.358,214.599 51.746 C 214.683 51.610,214.605 51.408,214.426 51.298 C 214.223 51.172,214.175 51.217,214.299 51.417 C 214.774 52.186,213.790 51.635,212.649 50.494 C 211.508 49.353,210.958 48.370,211.726 48.844 C 211.926 48.968,211.971 48.921,211.846 48.717 C 211.735 48.538,211.526 48.465,211.381 48.555 C 210.886 48.860,210.026 46.388,210.021 44.645 C 210.013 42.029,211.548 40.070,213.326 40.426 C 213.987 40.558,214.159 40.478,214.301 39.973 C 214.470 39.372,214.482 39.371,214.886 39.900 C 215.513 40.720,215.397 40.890,214.216 40.890 C 213.166 40.890,212.472 41.492,213.086 41.871 C 213.485 42.118,213.406 42.623,213.004 42.392 C 212.802 42.276,212.754 42.298,212.888 42.445 C 213.016 42.584,213.266 42.704,213.445 42.711 C 213.623 42.718,213.736 42.880,213.695 43.072 C 213.655 43.263,213.780 43.399,213.973 43.374 C 214.167 43.348,214.826 43.359,215.438 43.397 L 216.551 43.467 215.577 43.672 L 214.604 43.877 215.498 43.913 C 216.127 43.939,216.479 43.788,216.684 43.404 C 216.873 43.052,217.139 42.921,217.435 43.034 C 217.712 43.140,217.824 43.097,217.718 42.926 C 217.621 42.769,217.722 42.404,217.942 42.113 C 218.456 41.434,218.471 39.408,217.968 38.442 C 216.182 35.009,211.288 34.799,207.934 38.011 C 207.479 38.447,206.989 38.804,206.846 38.804 C 206.703 38.804,206.554 39.117,206.516 39.499 C 206.478 39.882,206.189 40.883,205.875 41.725 C 204.955 44.187,205.220 46.871,206.672 49.791 C 207.090 50.633,207.371 51.495,207.296 51.708 C 207.216 51.935,207.284 52.018,207.460 51.909 C 207.774 51.715,209.092 53.294,208.971 53.719 C 208.933 53.854,209.052 53.933,209.236 53.894 C 209.421 53.856,209.577 53.971,209.584 54.149 C 209.602 54.610,210.014 54.968,210.014 54.522 C 210.014 54.303,210.275 54.425,210.658 54.824 C 211.013 55.192,211.244 55.607,211.172 55.745 C 211.100 55.884,211.168 55.918,211.324 55.822 C 211.699 55.590,214.533 56.966,214.336 57.284 C 214.252 57.420,214.491 57.498,214.866 57.456 C 215.243 57.415,215.613 57.550,215.693 57.759 C 215.773 57.966,215.998 58.134,216.194 58.132 C 216.445 58.129,216.427 58.044,216.134 57.845 C 215.725 57.569,216.725 57.687,217.803 58.042 C 218.789 58.368,223.391 58.103,225.255 57.614 C 226.658 57.245,227.275 57.185,227.366 57.406 C 227.436 57.578,227.504 57.513,227.516 57.262 C 227.540 56.768,228.265 56.368,228.676 56.622 C 228.815 56.708,228.929 56.674,228.929 56.547 C 228.929 56.208,230.909 55.201,231.372 55.304 C 231.589 55.352,231.689 55.267,231.595 55.114 C 231.501 54.962,231.551 54.758,231.706 54.662 C 231.862 54.566,231.989 54.641,231.989 54.828 C 231.989 55.016,232.083 55.075,232.197 54.961 C 232.312 54.846,232.407 54.669,232.407 54.567 C 232.410 54.174,237.200 49.809,237.414 50.003 C 237.539 50.116,237.553 50.055,237.445 49.867 C 237.225 49.484,238.354 47.791,238.690 47.999 C 238.808 48.072,238.995 47.985,239.106 47.806 C 239.239 47.591,239.186 47.555,238.950 47.701 C 238.753 47.822,238.647 47.810,238.712 47.674 C 241.793 41.311,242.253 39.781,242.475 35.163 C 242.821 27.964,240.705 21.204,236.256 15.290 C 234.743 13.279,234.520 12.886,235.092 13.239 C 235.292 13.363,235.337 13.316,235.212 13.112 C 235.101 12.933,234.916 12.845,234.800 12.916 C 234.480 13.114,230.829 9.323,231.077 9.050 C 231.196 8.919,231.154 8.891,230.985 8.988 C 230.815 9.085,229.960 8.609,229.086 7.930 C 228.212 7.251,227.067 6.430,226.542 6.106 C 226.017 5.781,225.670 5.382,225.771 5.218 C 225.878 5.047,225.825 5.002,225.646 5.112 C 225.476 5.217,224.324 4.794,223.086 4.172 C 216.734 0.978,207.462 -0.642,200.834 0.283 M242.907 32.406 C 242.911 33.018,242.967 33.236,243.034 32.890 C 243.101 32.544,243.098 32.043,243.028 31.777 C 242.959 31.511,242.904 31.794,242.907 32.406 M242.902 34.771 C 242.902 35.306,242.959 35.525,243.029 35.257 C 243.099 34.990,243.099 34.551,243.029 34.284 C 242.959 34.016,242.902 34.235,242.902 34.771 M216.690 39.777 C 216.996 40.083,217.246 40.459,217.246 40.612 C 217.246 41.021,215.672 40.953,215.657 40.542 C 215.649 40.351,215.553 39.976,215.441 39.708 C 215.157 39.022,215.980 39.068,216.690 39.777 M215.855 39.743 C 215.855 39.915,215.988 40.056,216.150 40.056 C 216.312 40.056,216.367 40.181,216.273 40.334 C 216.178 40.487,216.233 40.612,216.395 40.612 C 216.821 40.612,216.757 40.180,216.273 39.777 C 215.984 39.538,215.855 39.528,215.855 39.743 M204.761 44.559 C 204.743 45.277,204.828 45.925,204.949 46.000 C 205.070 46.075,205.125 45.676,205.072 45.113 C 204.909 43.393,204.795 43.190,204.761 44.559 M43.745 47.766 C 44.168 47.830,44.794 47.828,45.136 47.762 C 45.478 47.696,45.132 47.644,44.367 47.646 C 43.602 47.648,43.322 47.702,43.745 47.766 M161.962 48.540 C 161.965 49.152,162.022 49.369,162.088 49.023 C 162.155 48.677,162.152 48.176,162.083 47.911 C 162.013 47.645,161.959 47.928,161.962 48.540 M39.708 48.041 C 40.052 48.107,40.615 48.107,40.960 48.041 C 41.304 47.974,41.022 47.920,40.334 47.920 C 39.645 47.920,39.364 47.974,39.708 48.041 M48.192 48.036 C 48.460 48.106,48.898 48.106,49.166 48.036 C 49.433 47.966,49.214 47.909,48.679 47.909 C 48.143 47.909,47.924 47.966,48.192 48.036 M161.716 53.408 C 161.716 55.014,161.762 55.671,161.818 54.868 C 161.875 54.065,161.875 52.750,161.818 51.947 C 161.762 51.144,161.716 51.801,161.716 53.408 M43.185 53.332 C 43.759 53.392,44.697 53.392,45.271 53.332 C 45.845 53.272,45.376 53.223,44.228 53.223 C 43.081 53.223,42.611 53.272,43.185 53.332 M158.345 79.758 C 158.919 79.818,159.857 79.818,160.431 79.758 C 161.005 79.698,160.535 79.648,159.388 79.648 C 158.241 79.648,157.771 79.698,158.345 79.758 M169.471 80.303 C 169.739 80.373,170.177 80.373,170.445 80.303 C 170.713 80.233,170.494 80.176,169.958 80.176 C 169.423 80.176,169.204 80.233,169.471 80.303 M24.548 113.405 C 24.816 113.475,25.254 113.475,25.522 113.405 C 25.789 113.335,25.570 113.277,25.035 113.277 C 24.499 113.277,24.280 113.335,24.548 113.405 M27.608 113.405 C 27.876 113.475,28.314 113.475,28.581 113.405 C 28.849 113.335,28.630 113.277,28.095 113.277 C 27.559 113.277,27.340 113.335,27.608 113.405 M220.723 151.886 C 306.866 157.562,378.789 220.841,395.236 305.424 C 412.316 393.261,366.744 480.585,284.979 516.693 C 279.161 519.262,270.256 522.643,269.995 522.382 C 269.851 522.239,268.872 519.142,263.007 500.278 C 260.914 493.547,257.388 482.218,255.171 475.104 C 245.752 444.881,244.369 440.439,240.748 428.790 C 238.656 422.058,235.654 412.420,234.077 407.371 C 232.500 402.323,229.501 392.684,227.412 385.953 C 225.323 379.221,223.253 372.587,222.812 371.210 C 222.371 369.833,220.306 363.199,218.222 356.467 C 216.139 349.736,214.074 343.102,213.634 341.725 C 213.194 340.348,211.707 335.591,210.330 331.154 C 208.952 326.718,206.012 317.267,203.796 310.153 C 201.580 303.039,197.121 288.707,193.888 278.303 C 190.655 267.900,187.648 258.261,187.207 256.885 C 186.766 255.508,184.701 248.873,182.617 242.142 C 180.534 235.410,178.468 228.776,178.027 227.399 C 177.585 226.022,175.520 219.388,173.436 212.656 C 171.353 205.925,169.288 199.291,168.847 197.914 C 168.407 196.537,166.590 190.716,164.810 184.979 C 155.851 156.108,156.724 158.693,156.071 159.097 C 155.745 159.299,156.018 160.855,157.695 168.334 C 158.804 173.282,160.705 181.773,161.919 187.204 C 163.133 192.636,164.997 200.960,166.061 205.702 C 167.756 213.259,170.733 226.561,182.058 277.191 C 183.529 283.769,185.532 292.719,186.509 297.079 C 187.485 301.439,189.362 309.826,190.680 315.716 C 194.595 333.217,197.694 347.063,199.583 355.494 C 201.365 363.450,204.290 376.520,208.174 393.880 C 210.866 405.910,214.574 422.475,216.861 432.684 C 217.855 437.121,219.968 446.572,221.558 453.686 C 223.147 460.800,225.261 470.250,226.254 474.687 C 237.301 524.000,238.689 530.250,238.607 530.327 C 238.400 530.522,232.437 531.334,227.484 531.842 C 115.081 543.372,17.524 455.089,17.524 341.842 C 17.524 231.941,110.902 144.650,220.723 151.886 M61.261 168.011 C 61.261 168.547,61.318 168.766,61.388 168.498 C 61.458 168.230,61.458 167.792,61.388 167.524 C 61.318 167.257,61.261 167.476,61.261 168.011 M61.261 188.595 C 61.261 189.131,61.318 189.350,61.388 189.082 C 61.458 188.814,61.458 188.376,61.388 188.108 C 61.318 187.841,61.261 188.060,61.261 188.595 M254.381 201.962 C 224.474 206.593,207.319 238.538,220.194 265.626 C 233.609 293.849,270.402 300.301,292.507 278.305 C 317.823 253.115,305.127 210.276,270.033 202.471 C 267.093 201.817,257.360 201.501,254.381 201.962 M101.244 237.279 C 65.541 243.572,51.692 287.534,77.317 313.236 C 105.618 341.624,154.054 321.473,153.931 281.363 C 153.845 253.528,128.652 232.448,101.244 237.279 M399.230 320.167 C 399.230 320.702,399.287 320.921,399.357 320.654 C 399.427 320.386,399.427 319.948,399.357 319.680 C 399.287 319.412,399.230 319.631,399.230 320.167 M16.476 324.339 C 16.476 324.875,16.533 325.094,16.603 324.826 C 16.673 324.558,16.673 324.120,16.603 323.853 C 16.533 323.585,16.476 323.804,16.476 324.339 M399.786 326.565 C 399.786 327.100,399.844 327.319,399.914 327.051 C 399.984 326.784,399.984 326.346,399.914 326.078 C 399.844 325.810,399.786 326.029,399.786 326.565 M15.939 333.797 C 15.939 334.638,15.991 334.983,16.055 334.562 C 16.118 334.141,16.118 333.453,16.055 333.032 C 15.991 332.611,15.939 332.955,15.939 333.797 M15.688 342.003 C 15.689 344.298,15.732 345.199,15.784 344.007 C 15.836 342.814,15.836 340.936,15.783 339.834 C 15.731 338.732,15.688 339.708,15.688 342.003 M311.961 348.512 C 275.852 355.195,261.753 397.756,286.904 424.154 C 301.453 439.424,325.754 442.244,343.462 430.718 C 370.944 412.831,370.948 372.676,343.470 355.038 C 334.471 349.261,321.937 346.665,311.961 348.512 M15.935 350.348 C 15.937 351.113,15.991 351.393,16.055 350.970 C 16.119 350.547,16.117 349.921,16.051 349.579 C 15.985 349.237,15.933 349.583,15.935 350.348 M399.786 357.997 C 399.786 358.533,399.844 358.752,399.914 358.484 C 399.984 358.216,399.984 357.778,399.914 357.510 C 399.844 357.243,399.786 357.462,399.786 357.997 M16.482 359.527 C 16.485 360.139,16.542 360.357,16.608 360.011 C 16.675 359.665,16.672 359.164,16.603 358.898 C 16.533 358.632,16.479 358.915,16.482 359.527 M122.837 387.070 C 87.013 392.888,72.289 436.269,97.217 462.555 C 122.191 488.889,166.686 475.854,173.878 440.098 C 179.927 410.020,153.106 382.154,122.837 387.070 M186.161 533.432 C 186.429 533.502,186.867 533.502,187.135 533.432 C 187.403 533.362,187.184 533.305,186.648 533.305 C 186.113 533.305,185.894 533.362,186.161 533.432 M228.999 533.432 C 229.266 533.502,229.704 533.502,229.972 533.432 C 230.240 533.362,230.021 533.305,229.485 533.305 C 228.950 533.305,228.731 533.362,228.999 533.432 M193.115 533.989 C 193.383 534.059,193.821 534.059,194.089 533.989 C 194.357 533.919,194.138 533.861,193.602 533.861 C 193.067 533.861,192.848 533.919,193.115 533.989 " stroke="none" fill="#060606" fill-rule="evenodd"></path><path id="path1" d="M203.338 151.522 C 92.043 154.136,6.306 252.358,18.646 363.111 C 30.245 467.206,123.452 542.514,227.484 531.842 C 232.437 531.334,238.400 530.522,238.607 530.327 C 238.689 530.250,237.301 524.000,226.254 474.687 C 225.261 470.250,223.147 460.800,221.558 453.686 C 219.968 446.572,217.855 437.121,216.861 432.684 C 214.574 422.475,210.866 405.910,208.174 393.880 C 204.290 376.520,201.365 363.450,199.583 355.494 C 197.694 347.063,194.595 333.217,190.680 315.716 C 189.362 309.826,187.485 301.439,186.509 297.079 C 185.532 292.719,183.529 283.769,182.058 277.191 C 170.733 226.561,167.756 213.259,166.061 205.702 C 164.997 200.960,163.133 192.636,161.919 187.204 C 160.705 181.773,158.804 173.282,157.695 168.334 C 156.018 160.855,155.745 159.299,156.071 159.097 C 156.724 158.693,155.851 156.108,164.810 184.979 C 166.590 190.716,168.407 196.537,168.847 197.914 C 169.288 199.291,171.353 205.925,173.436 212.656 C 175.520 219.388,177.585 226.022,178.027 227.399 C 178.468 228.776,180.534 235.410,182.617 242.142 C 184.701 248.873,186.766 255.508,187.207 256.885 C 187.648 258.261,190.655 267.900,193.888 278.303 C 197.121 288.707,201.580 303.039,203.796 310.153 C 206.012 317.267,208.952 326.718,210.330 331.154 C 211.707 335.591,213.194 340.348,213.634 341.725 C 214.074 343.102,216.139 349.736,218.222 356.467 C 220.306 363.199,222.371 369.833,222.812 371.210 C 223.253 372.587,225.323 379.221,227.412 385.953 C 229.501 392.684,232.500 402.323,234.077 407.371 C 235.654 412.420,238.656 422.058,240.748 428.790 C 244.369 440.439,245.752 444.881,255.171 475.104 C 257.388 482.218,260.914 493.547,263.007 500.278 C 268.872 519.142,269.851 522.239,269.995 522.382 C 270.256 522.643,279.161 519.262,284.979 516.693 C 363.589 481.978,409.166 399.595,396.784 314.604 C 382.879 219.162,299.955 149.254,203.338 151.522 M270.033 202.471 C 305.127 210.276,317.823 253.115,292.507 278.305 C 270.402 300.301,233.609 293.849,220.194 265.626 C 207.319 238.538,224.474 206.593,254.381 201.962 C 257.360 201.501,267.093 201.817,270.033 202.471 M116.712 237.278 C 152.911 243.466,166.631 288.321,140.153 313.908 C 112.930 340.214,67.503 322.937,64.260 285.044 C 61.785 256.127,87.894 232.351,116.712 237.278 M328.095 348.804 C 363.013 356.315,376.062 398.356,351.483 424.154 C 336.934 439.424,312.632 442.244,294.924 430.718 C 267.622 412.948,267.352 373.431,294.410 355.395 C 303.994 349.007,317.107 346.441,328.095 348.804 M138.755 387.455 C 180.587 396.729,187.781 453.435,149.472 471.925 C 107.838 492.021,66.831 443.967,92.929 405.665 C 102.523 391.584,122.168 383.778,138.755 387.455 " stroke="none" fill="#d40404" fill-rule="evenodd"></path></g></svg>